<?xml version="1.0" standalone="no"?>
<!DOCTYPE svg PUBLIC "-//W3C//DTD SVG 20010904//EN"
 "http://www.w3.org/TR/2001/REC-SVG-20010904/DTD/svg10.dtd">
<svg version="1.0" xmlns="http://www.w3.org/2000/svg"
 width="569.000000pt" height="569.000000pt" viewBox="0 0 569.000000 569.000000"
 preserveAspectRatio="xMidYMid meet">
<metadata>
Created by potrace 1.14, written by Peter Selinger 2001-2017
</metadata>
<g transform="translate(0.000000,569.000000) scale(0.100000,-0.100000)"
fill="#000000" stroke="none">
<path d="M2627 5683 c-7 -6 -60 -12 -122 -13 -44 -1 -153 -34 -200 -60 -27
-16 -72 -36 -100 -45 -27 -10 -57 -23 -65 -30 -8 -7 -26 -16 -40 -20 -14 -4
-38 -17 -55 -30 -16 -12 -58 -37 -92 -54 -34 -18 -63 -36 -65 -40 -2 -4 -33
-24 -70 -44 -38 -21 -68 -44 -68 -51 0 -7 -12 -19 -27 -27 -26 -12 -139 -105
-189 -154 -11 -11 -41 -38 -67 -60 -27 -23 -58 -62 -73 -92 -14 -29 -30 -53
-35 -53 -5 0 -9 -6 -9 -14 0 -8 -10 -23 -22 -33 -13 -11 -39 -36 -58 -57 -33
-36 -34 -38 -10 -32 28 7 33 11 -58 -51 -26 -18 -63 -41 -82 -52 -76 -44 -85
-61 -13 -26 39 19 73 35 75 35 2 0 4 -11 4 -25 1 -18 -13 -41 -49 -77 -28 -29
-51 -55 -52 -58 -7 -28 -18 -50 -26 -50 -5 0 -12 0 -16 -1 -12 -1 -53 -41 -53
-51 0 -11 44 1 48 13 5 13 22 11 22 -3 0 -6 -6 -19 -14 -27 -8 -9 -40 -65 -70
-125 -31 -60 -59 -114 -64 -120 -4 -6 -8 -29 -7 -51 0 -22 -3 -42 -7 -45 -17
-13 -30 -153 -19 -209 9 -48 13 -106 11 -186 0 -11 -3 -69 -6 -130 -3 -60 -10
-189 -14 -285 -8 -175 -14 -215 -42 -280 -16 -37 -40 -280 -33 -340 2 -19 4
-73 5 -120 1 -98 29 -208 66 -257 13 -17 24 -36 24 -42 0 -6 6 -11 13 -11 7 0
18 -22 24 -49 15 -64 52 -141 108 -226 24 -37 47 -82 51 -99 3 -17 24 -67 46
-111 33 -65 58 -97 136 -174 64 -62 105 -94 121 -95 14 -1 26 -7 28 -13 2 -6
15 -24 28 -39 16 -19 21 -32 15 -38 -16 -16 -12 -23 38 -74 35 -37 55 -69 79
-133 41 -108 40 -103 58 -309 8 -96 24 -272 35 -390 38 -399 39 -424 28 -437
-8 -11 129 -13 711 -13 l722 0 6 30 c3 17 10 33 15 36 5 3 1 13 -9 21 -10 8
-12 11 -5 8 7 -4 22 1 32 10 12 11 20 13 25 5 5 -8 14 -6 32 5 14 10 22 12 19
6 -4 -6 -3 -11 2 -11 5 0 13 -15 17 -32 5 -22 9 -27 12 -16 2 9 0 26 -6 36 -8
15 -6 23 9 37 19 17 20 17 27 -1 4 -10 2 -19 -5 -22 -7 -2 -12 -8 -12 -14 0
-6 7 -8 15 -4 10 4 15 -1 15 -15 0 -18 2 -18 28 -6 46 24 75 3 65 -45 l-5 -28
100 0 c108 0 124 8 101 52 -6 12 -7 18 -1 14 5 -3 13 1 16 10 9 23 0 29 -19
14 -9 -7 -15 -9 -14 -4 5 30 -3 54 -18 54 -15 0 -15 2 -4 9 16 10 44 3 36 -9
-3 -4 2 -10 10 -14 14 -5 20 7 15 29 -1 6 -3 17 -3 25 0 8 -4 21 -10 28 -7 8
-5 12 7 12 11 0 15 5 11 13 -4 6 0 4 9 -7 8 -10 19 -15 25 -12 5 4 11 -4 14
-16 3 -21 4 -22 12 -4 6 14 3 23 -10 32 -10 7 -22 11 -26 8 -5 -3 -9 2 -9 10
0 9 -6 16 -12 16 -10 0 -10 2 0 9 8 4 13 11 13 15 -4 30 1 45 14 40 19 -8 57
54 50 82 -8 34 16 57 45 45 l25 -10 -30 -1 c-24 -1 -26 -3 -11 -9 17 -6 17 -8
4 -14 -11 -4 -15 -16 -14 -36 1 -17 -1 -31 -6 -31 -4 0 -8 -4 -8 -10 0 -5 6
-7 14 -4 7 3 16 -2 19 -10 5 -13 9 -14 34 -1 17 9 31 11 38 5 6 -5 22 -7 36
-4 18 3 15 0 -10 -11 -30 -15 -32 -18 -18 -33 15 -17 12 -42 -6 -53 -5 -4 0
-12 12 -18 19 -10 21 -9 21 11 1 23 1 23 15 -2 8 -14 14 -19 15 -12 0 6 5 12
11 12 8 0 9 -4 0 -13 -6 -8 -8 -17 -4 -21 4 -4 -1 -4 -10 0 -12 4 -23 0 -31
-11 -7 -10 -24 -19 -37 -21 -13 -1 -33 -4 -44 -7 -11 -2 -23 1 -27 6 -8 13
-38 -9 -38 -29 0 -7 -8 -18 -17 -23 -10 -6 -12 -11 -5 -11 6 0 12 -5 12 -11 0
-5 -5 -7 -11 -3 -7 4 -9 0 -5 -14 5 -14 1 -21 -14 -25 -11 -3 -18 -2 -16 2 3
4 -5 7 -17 8 -12 0 -16 -1 -10 -4 9 -3 10 -10 3 -24 -10 -18 -7 -19 49 -19 33
0 66 3 75 6 21 8 10 25 -12 18 -12 -4 -13 -3 -4 3 17 13 74 4 65 -10 -7 -12
14 -1 40 21 20 17 37 8 19 -10 -16 -16 -15 -28 3 -28 8 0 15 6 15 13 0 8 3 8
9 -2 8 -12 14 -13 35 -3 16 7 26 8 26 2 0 -6 52 -10 130 -10 l129 0 12 43 c16
60 5 195 -19 238 -20 34 -27 72 -37 209 -3 41 -10 136 -15 210 -15 200 -13
444 4 483 7 18 30 52 51 77 21 25 47 65 57 88 11 24 37 67 59 95 21 28 50 83
64 122 35 93 67 140 113 164 54 28 90 66 101 106 5 19 21 49 36 67 45 53 76
126 105 247 32 132 44 189 44 211 1 19 45 80 46 62 0 -7 -5 -22 -10 -33 -9
-16 -7 -19 11 -19 12 0 23 8 26 19 3 11 15 21 26 23 20 3 22 9 22 80 0 43 2
78 5 78 3 0 11 -20 18 -45 7 -25 16 -45 22 -45 15 0 12 58 -9 135 -10 39 -20
77 -22 85 -3 10 2 14 14 12 23 -4 22 20 -3 48 -11 13 -20 27 -20 32 0 5 -14
29 -31 54 -41 59 -56 104 -39 114 10 6 10 15 2 39 -9 26 -8 32 6 41 15 9 15
12 -8 29 -14 11 -21 23 -17 27 4 4 7 2 7 -4 0 -7 4 -12 10 -12 6 0 8 21 5 51
-4 40 -2 56 11 70 11 12 13 19 5 19 -7 0 -10 4 -6 9 3 5 1 12 -5 16 -5 3 -10
11 -10 17 0 6 8 4 19 -6 16 -15 19 -15 31 -1 10 12 10 21 0 44 -9 23 -9 34 1
53 8 14 14 66 15 136 0 62 4 115 7 118 3 3 1 20 -4 37 -10 32 -27 132 -34 199
-2 20 -8 46 -14 56 -6 11 -8 29 -6 42 4 19 -9 55 -25 70 -7 6 -61 158 -64 180
-1 8 -18 49 -38 90 -35 72 -42 97 -53 168 -3 19 -15 52 -27 75 -12 23 -23 44
-23 47 -1 3 -4 12 -7 20 -4 8 -15 51 -26 95 -11 44 -29 98 -40 120 -12 22 -32
63 -46 90 -13 28 -31 57 -40 64 -18 16 -22 1 -4 -17 7 -7 8 -12 4 -12 -5 0
-36 28 -70 63 -69 69 -109 100 -146 112 -14 4 -34 14 -45 21 -11 8 -32 14 -47
14 -17 0 -28 5 -28 14 0 13 -48 26 -101 26 -15 0 -32 6 -38 14 -14 16 -131 12
-165 -6 -16 -9 -24 -4 -50 27 -17 20 -41 64 -52 98 -12 34 -25 62 -30 62 -14
1 -94 54 -94 63 0 13 -64 44 -68 33 -2 -6 -20 2 -40 18 -20 16 -53 34 -72 40
-19 6 -82 24 -140 42 -58 17 -123 38 -145 46 -22 8 -89 19 -150 23 -60 5 -127
16 -147 24 -42 18 -61 21 -38 6 16 -10 -81 -4 -110 7 -27 11 -56 13 -63 6z
m1420 -519 c-3 -3 -12 -4 -19 -1 -8 3 -5 6 6 6 11 1 17 -2 13 -5z m-1101 -47
c6 2 17 -3 24 -12 14 -17 35 -21 24 -3 -5 8 0 9 16 5 17 -4 20 -3 11 6 -18 18
-13 24 24 23 20 -1 40 -8 46 -16 8 -11 12 -12 15 -3 4 8 13 9 30 3 16 -7 24
-6 24 1 0 7 6 6 17 -2 10 -8 14 -9 10 -2 -4 6 -3 14 3 18 5 3 10 1 10 -6 0
-10 3 -10 11 -2 8 8 20 8 35 3 13 -5 31 -7 39 -4 8 4 15 1 15 -5 0 -6 -10 -11
-22 -11 -28 0 -43 -10 -44 -31 -1 -12 9 -15 52 -14 37 2 51 -1 47 -9 -4 -6 1
-5 10 2 13 12 18 10 29 -7 7 -12 18 -21 25 -21 7 0 13 -5 13 -11 0 -5 5 -7 10
-4 6 4 8 10 5 15 -3 5 4 8 15 7 11 -1 20 -4 20 -8 0 -4 8 -6 18 -5 11 1 16 -5
14 -16 -2 -12 3 -16 18 -13 11 2 20 -1 20 -8 0 -7 4 -6 11 3 9 12 10 11 6 -7
-5 -23 21 -42 32 -24 4 6 12 6 21 1 8 -6 11 -10 5 -10 -5 0 -3 -5 5 -10 12 -8
12 -10 1 -10 -11 0 -11 -3 -1 -15 7 -8 24 -15 38 -15 25 0 25 0 6 16 -18 14
-18 15 4 4 27 -13 27 -19 5 -36 -17 -12 -17 -12 2 -11 13 1 19 -3 17 -12 -2
-11 0 -12 11 -2 12 9 16 7 21 -13 5 -21 12 -25 41 -24 19 1 38 -2 42 -5 3 -4
-3 -7 -15 -7 -19 0 -20 -3 -11 -22 12 -26 59 -64 59 -49 0 6 11 1 24 -10 14
-12 22 -27 20 -34 -3 -6 2 -18 11 -25 20 -16 19 -31 -1 -23 -13 5 -15 3 -7
-13 6 -10 8 -25 6 -31 -3 -7 0 -13 7 -13 6 0 9 4 5 9 -3 5 -1 12 4 15 12 8 22
-8 25 -39 2 -18 -1 -22 -13 -18 -27 10 -51 35 -44 47 3 6 2 7 -2 3 -13 -11
-15 -37 -4 -37 6 0 7 -5 3 -12 -5 -7 -2 -9 7 -6 20 8 66 -17 50 -26 -7 -4 -18
-2 -26 4 -12 10 -15 9 -15 -9 0 -11 5 -21 11 -21 17 0 40 -28 29 -35 -6 -4 -8
-11 -5 -16 4 -5 1 -9 -4 -9 -6 0 -11 5 -11 12 0 6 -3 8 -7 5 -3 -4 4 -19 18
-33 23 -25 23 -26 2 -15 -16 8 -24 8 -29 -1 -4 -6 -3 -8 3 -5 6 4 16 0 23 -8
7 -8 19 -15 27 -15 8 0 11 -5 8 -10 -4 -6 -11 -8 -16 -5 -5 4 -9 0 -9 -7 0 -9
-3 -9 -10 2 -6 9 -10 10 -10 3 0 -6 4 -14 10 -18 5 -3 7 -12 3 -20 -4 -11 -1
-13 11 -9 9 3 16 1 16 -5 0 -6 -7 -11 -16 -11 -8 0 -13 -4 -9 -9 3 -5 1 -12
-4 -16 -10 -5 -7 -36 4 -55 3 -6 1 -10 -5 -10 -6 0 -9 -4 -5 -9 3 -5 1 -12 -3
-15 -5 -3 -7 -17 -5 -31 3 -13 9 -22 14 -19 5 3 9 -2 9 -10 0 -9 4 -16 8 -16
5 0 14 -11 20 -25 9 -20 9 -25 -3 -25 -8 0 -19 9 -25 20 -13 25 -33 26 -51 3
-11 -15 -11 -16 1 -5 22 19 25 15 25 -41 0 -51 -15 -84 -35 -72 -6 3 -7 -1 -4
-10 4 -9 13 -14 20 -11 8 3 14 1 14 -4 0 -6 -5 -10 -10 -10 -6 0 -8 -11 -4
-25 6 -25 -10 -36 -19 -12 -3 6 -6 0 -6 -15 -1 -20 -5 -26 -16 -22 -8 4 -15 1
-15 -5 0 -16 -21 -13 -63 9 -20 11 -44 20 -54 20 -9 0 -13 3 -10 7 8 7 -11 33
-24 33 -5 0 -9 -7 -9 -16 0 -9 -9 -18 -19 -21 -12 -3 -17 -11 -14 -19 3 -10
-2 -14 -18 -14 -19 0 -21 2 -9 10 20 12 0 33 -23 24 -19 -7 -23 -24 -6 -24 5
0 7 -4 4 -10 -3 -5 -16 -10 -28 -10 -18 0 -19 2 -7 10 13 9 13 10 0 11 -8 1
-18 1 -22 0 -5 0 -8 4 -8 11 0 6 -3 9 -6 6 -3 -4 -18 -2 -34 2 -16 4 -31 5
-35 2 -11 -11 -46 -12 -40 -1 9 13 -169 4 -210 -11 -22 -8 -33 -7 -52 6 -14 8
-26 14 -27 12 -1 -2 -8 -11 -15 -21 -12 -15 -12 -17 3 -11 9 3 16 11 16 16 0
6 7 5 15 -2 17 -15 11 -25 -27 -44 -12 -6 -23 -17 -23 -23 0 -22 -11 -22 -12
0 -1 12 -12 30 -25 40 -21 18 -22 18 -29 0 -7 -16 -8 -15 -8 5 -1 12 -6 22
-12 22 -6 0 -8 -9 -4 -20 7 -22 -20 -29 -28 -7 -4 9 -6 9 -6 0 -1 -6 4 -15 9
-18 20 -13 10 -26 -12 -14 -19 10 -20 9 -13 -7 4 -11 7 -29 7 -40 -1 -12 5
-28 14 -35 14 -11 13 -14 -8 -26 -13 -9 -15 -12 -5 -9 21 7 34 -18 19 -37 -11
-13 0 -51 18 -62 7 -4 7 -11 2 -18 -14 -19 -23 -49 -12 -42 6 3 10 -1 10 -9 0
-9 -7 -16 -15 -16 -8 0 -15 -5 -15 -11 0 -5 5 -7 10 -4 6 3 10 2 10 -4 0 -5
-5 -13 -11 -16 -6 -4 -8 -13 -5 -21 3 -7 1 -16 -4 -19 -6 -4 -10 -15 -10 -26
0 -10 -5 -19 -11 -19 -7 0 -9 -10 -7 -25 3 -14 1 -28 -3 -31 -13 -7 -1 -107
14 -116 9 -6 9 -8 -1 -8 -10 0 -9 -4 2 -16 9 -8 13 -21 9 -27 -3 -7 -3 -9 2
-5 13 12 35 -12 35 -38 0 -12 5 -26 10 -29 6 -3 10 -1 10 6 0 7 3 9 6 6 4 -4
1 -14 -6 -23 -12 -13 -11 -17 1 -25 8 -5 21 -6 29 -3 8 3 11 2 7 -2 -8 -9 31
-44 50 -44 7 0 13 -3 13 -8 0 -4 9 -13 21 -20 16 -10 24 -11 35 -1 12 10 12
14 2 20 -7 5 -8 9 -3 9 6 0 16 -4 24 -9 11 -7 11 -10 -3 -18 -14 -8 -14 -11
-2 -28 15 -21 47 -29 43 -12 -1 6 10 12 25 12 20 1 24 -2 17 -11 -8 -9 -5 -11
9 -7 13 3 30 -6 51 -26 42 -41 46 -39 16 5 -31 46 -34 73 -4 43 17 -17 23 -19
30 -8 7 11 9 10 9 -3 0 -21 20 -24 38 -6 8 8 12 8 12 1 0 -6 6 -11 13 -10 35
1 48 -4 41 -15 -6 -10 -4 -10 8 0 11 9 18 10 23 2 3 -5 1 -10 -6 -10 -7 0 -10
-3 -7 -6 4 -3 17 0 30 7 28 16 47 13 66 -9 13 -16 13 -16 8 1 -3 9 -1 17 4 17
6 0 10 -4 10 -10 0 -5 9 -10 20 -10 11 0 20 -5 20 -11 0 -7 10 -5 25 5 24 16
25 16 25 -9 0 -14 4 -25 9 -25 4 0 6 11 4 24 -3 13 1 27 8 31 7 5 10 4 5 -3
-3 -6 -2 -13 3 -16 5 -4 13 -2 16 4 5 8 11 7 21 -1 10 -8 14 -8 14 0 0 6 7 11
15 11 8 0 15 6 15 14 0 8 9 12 23 11 32 -4 33 -4 17 -15 -8 -5 -10 -10 -5 -10
21 0 34 17 48 65 9 28 16 44 16 37 1 -7 6 -10 13 -6 7 5 5 11 -7 21 -17 11
-17 13 -2 13 10 0 14 5 11 14 -4 10 6 16 36 21 30 5 40 11 36 21 -10 25 3 15
19 -16 12 -23 13 -30 3 -31 -7 0 1 -5 18 -10 27 -8 31 -13 26 -35 -4 -21 -2
-25 9 -19 11 7 11 5 -1 -10 -8 -10 -10 -16 -3 -12 7 5 16 -1 23 -13 8 -15 8
-20 -2 -20 -10 0 -10 -2 1 -9 11 -7 10 -10 -5 -14 -16 -4 -16 -5 4 -6 12 0 22
-7 22 -13 0 -9 4 -8 11 2 9 12 9 11 4 -5 -4 -11 -8 -26 -8 -32 0 -7 -4 -13 -9
-13 -4 0 -8 -5 -8 -11 0 -5 5 -7 12 -3 7 5 8 3 3 -5 -5 -9 -10 -10 -18 -2 -13
13 -27 14 -27 3 0 -5 11 -14 24 -20 22 -10 24 -17 23 -61 0 -28 -5 -51 -9 -51
-5 0 -7 -4 -4 -9 3 -5 -1 -11 -9 -15 -20 -7 -19 -36 1 -36 8 0 12 -5 9 -10 -4
-6 -12 -7 -18 -3 -9 5 -9 3 0 -8 6 -8 11 -18 11 -24 1 -18 -30 -44 -46 -39
-10 3 -7 -1 6 -7 23 -13 30 -29 11 -29 -5 0 -8 -4 -4 -9 8 -13 -16 -61 -31
-61 -6 0 -15 7 -18 16 -3 8 -2 12 4 9 6 -3 10 3 10 14 0 12 -4 20 -9 19 -5 -2
-17 6 -26 17 -16 20 -16 20 -6 -2 6 -12 11 -35 11 -52 0 -24 4 -31 20 -31 11
0 20 -5 20 -11 0 -5 -4 -7 -10 -4 -5 3 -10 -3 -10 -14 0 -14 5 -19 15 -15 8 4
15 1 15 -5 0 -6 -3 -10 -7 -10 -29 5 -31 1 -35 -56 -1 -17 -7 -24 -15 -21 -7
3 -13 -1 -13 -10 0 -8 7 -17 15 -20 12 -5 13 -10 5 -19 -6 -7 -12 -26 -13 -42
-2 -22 -8 -28 -25 -27 -20 1 -27 -7 -23 -28 2 -13 -17 -9 -22 5 -2 6 -8 9 -12
5 -4 -4 -4 -15 0 -25 4 -10 9 -25 10 -33 4 -35 18 -60 34 -61 10 0 11 -2 3 -6
-6 -2 -10 -9 -7 -14 4 -5 -1 -6 -10 -2 -14 5 -16 0 -13 -27 2 -25 -1 -33 -15
-36 -9 -1 -14 2 -11 7 3 6 3 17 -1 27 -5 13 -8 14 -15 3 -5 -10 -8 -6 -7 11 2
23 5 25 22 16 16 -9 18 -8 8 3 -10 10 -9 16 4 31 15 17 15 18 -10 18 -18 0
-27 -5 -27 -16 0 -10 -6 -13 -19 -9 -15 5 -18 1 -13 -21 3 -20 2 -25 -7 -19
-7 4 -10 13 -7 21 3 8 1 14 -3 14 -5 0 -7 10 -3 22 3 14 2 19 -7 14 -6 -4 -9
-11 -6 -16 3 -5 1 -11 -4 -14 -5 -4 -13 -1 -16 5 -7 11 25 40 36 33 4 -2 12 3
19 11 10 12 9 15 -4 15 -9 0 -16 8 -16 18 -1 16 -1 16 -11 -1 -6 -9 -15 -15
-20 -11 -6 3 -5 12 3 21 12 15 11 15 -9 3 -15 -10 -20 -21 -17 -38 3 -13 -1
-31 -8 -39 -12 -15 -19 -35 -20 -63 0 -8 -8 -23 -16 -32 -22 -26 -7 -22 18 4
23 25 27 12 5 -18 -19 -25 -19 -34 0 -34 8 0 15 7 15 16 0 8 4 13 9 9 5 -3 13
0 17 6 3 6 0 15 -7 20 -8 5 -9 9 -4 9 6 0 2 7 -9 15 -18 13 -14 41 5 30 5 -4
9 -2 9 3 0 5 7 9 15 9 9 0 11 -5 7 -11 -7 -10 -8 -32 -2 -38 10 -11 5 -70 -6
-79 -8 -6 -14 -9 -14 -5 0 3 -16 -3 -35 -14 -45 -25 -53 -25 -30 0 17 19 17
20 2 14 -10 -3 -24 -1 -32 6 -12 10 -15 9 -15 -4 0 -10 4 -15 9 -11 11 6 9
-35 -3 -53 -4 -7 -3 -12 2 -12 6 0 12 7 16 15 3 8 14 15 25 15 11 0 21 6 24
13 4 9 7 9 18 0 10 -10 10 -16 1 -25 -16 -16 -15 -58 2 -58 9 0 13 10 11 29
-2 24 2 31 24 37 14 4 29 7 34 6 4 -1 7 2 7 7 0 14 -28 21 -33 8 -2 -7 -8 -9
-13 -4 -4 4 0 15 9 24 9 10 17 12 17 6 0 -13 32 -12 42 2 5 6 8 3 8 -7 0 -9
-4 -19 -8 -22 -7 -4 -8 -38 -3 -69 0 -5 11 -5 22 -2 19 6 20 5 8 -8 -8 -8 -17
-13 -21 -10 -5 2 -8 -3 -8 -11 0 -9 -4 -16 -10 -16 -5 0 -10 11 -10 25 0 16
-6 25 -15 25 -13 0 -17 -6 -14 -26 0 -4 -5 -10 -12 -15 -7 -4 -14 -24 -15 -44
0 -24 2 -32 8 -23 8 10 11 10 15 1 2 -7 11 -13 19 -13 23 0 16 -17 -11 -24
-42 -11 -41 -12 -44 42 0 12 -5 22 -10 22 -5 0 -7 -9 -4 -20 5 -18 2 -20 -29
-16 -29 3 -34 1 -35 -18 0 -11 1 -16 4 -9 3 8 12 9 34 1 16 -5 26 -14 23 -19
-5 -8 10 -13 29 -10 5 1 6 -3 3 -8 -7 -11 -25 -9 -45 3 -11 7 -13 5 -8 -7 3
-10 2 -17 -3 -17 -6 0 -11 12 -11 28 -1 17 -3 21 -6 9 -3 -10 -16 -23 -30 -28
-20 -7 -23 -13 -15 -21 7 -7 12 -19 12 -28 0 -9 -3 -11 -8 -5 -12 17 -37 15
-49 -4 -10 -17 -9 -18 9 -13 15 4 19 2 14 -7 -4 -6 -3 -17 2 -24 8 -9 4 -12
-13 -12 -13 0 -21 3 -19 7 2 4 0 9 -5 12 -5 3 -12 -4 -16 -17 -7 -21 -7 -21
-12 -2 -3 11 -12 24 -19 28 -8 5 -12 12 -9 16 2 5 -4 11 -15 14 -10 3 -21 1
-24 -4 -2 -5 -3 -4 -2 3 2 7 8 12 14 11 5 -1 9 5 8 14 -2 12 -13 18 -37 18
-28 1 -34 5 -34 22 0 12 -5 26 -9 30 -5 5 -6 2 -1 -6 5 -9 3 -12 -6 -9 -8 3
-13 13 -11 23 2 10 1 29 -3 42 -4 19 -10 23 -28 18 -21 -7 -21 -6 -3 7 13 10
16 20 11 29 -7 11 -5 11 10 -1 17 -14 18 -13 13 7 -4 14 -1 24 8 27 8 3 14 11
13 18 0 10 -2 10 -6 1 -7 -18 -20 -16 -27 3 -3 9 -2 12 5 8 7 -4 9 3 7 17 -2
19 -9 24 -33 25 -21 0 -29 5 -27 16 3 20 -23 42 -42 35 -11 -4 -16 3 -18 26
l-4 32 -11 -25 c-13 -27 -16 -20 -17 39 -1 20 -7 36 -15 39 -8 3 -11 0 -7 -6
4 -6 -1 -20 -11 -31 -12 -15 -20 -18 -30 -10 -7 6 -10 16 -6 23 3 6 0 5 -8 -2
-12 -11 -12 -14 0 -21 7 -5 11 -15 9 -22 -4 -9 -10 -5 -18 13 -11 23 -11 30 1
45 9 11 10 14 2 9 -7 -4 -13 -3 -13 3 0 6 -7 8 -15 5 -18 -7 -20 12 -2 20 6 3
1 3 -12 0 -16 -4 -21 -2 -17 5 5 7 1 8 -9 5 -10 -4 -15 -14 -12 -25 3 -11 0
-20 -6 -21 -35 -4 -44 -4 -60 4 -10 5 -39 11 -65 13 -35 2 -41 1 -24 -6 12 -4
22 -10 22 -13 0 -11 -47 9 -67 29 -16 16 -24 38 -28 81 -4 32 -8 73 -9 89 -2
17 -4 47 -5 68 0 20 -6 37 -12 37 -6 0 -9 -6 -6 -14 3 -8 0 -20 -8 -26 -9 -7
-11 -20 -6 -38 5 -15 7 -61 5 -102 -2 -41 -3 -83 -3 -92 -1 -14 -10 -18 -41
-18 -27 0 -43 -5 -46 -15 -4 -8 -9 -13 -13 -10 -4 2 -5 -9 -3 -26 3 -21 11
-31 28 -35 25 -6 31 -19 14 -29 -6 -4 -7 -11 -4 -17 5 -7 1 -9 -9 -5 -9 3 -17
2 -19 -3 -2 -5 -16 -11 -33 -14 -16 -4 -24 -3 -17 0 10 5 8 10 -7 21 -24 17
-29 48 -6 39 20 -7 19 11 -1 22 -9 5 -19 24 -23 43 -4 19 -12 35 -19 35 -26 3
-26 7 3 15 29 8 29 8 -7 6 -25 -2 -39 2 -43 11 -7 18 -8 17 30 30 21 7 24 11
10 11 -11 0 -31 -6 -45 -14 -33 -19 -37 -19 -43 5 -6 22 8 28 16 8 3 -8 16 0
36 21 33 37 39 47 19 35 -7 -5 -21 -9 -31 -9 -10 -1 -31 -11 -47 -23 -17 -13
-36 -19 -46 -15 -13 5 -15 3 -9 -8 6 -10 5 -11 -4 -3 -17 16 -2 47 20 41 11
-3 16 -1 13 4 -3 5 2 16 10 25 12 12 16 12 17 2 0 -7 4 -3 9 8 7 17 17 22 49
22 48 1 70 11 50 23 -7 4 -10 11 -6 16 4 4 17 2 28 -5 20 -13 39 -9 39 9 0 6
-6 7 -12 3 -7 -4 -2 5 11 19 13 15 28 24 32 21 5 -3 9 1 9 9 0 8 11 18 25 21
13 3 32 20 40 36 17 33 31 31 45 -4 8 -18 9 -19 9 -2 1 13 6 16 19 11 9 -4 35
-9 57 -12 22 -2 46 -6 53 -8 22 -8 13 -23 -18 -30 -16 -4 -30 -11 -30 -16 0
-6 -4 -8 -9 -5 -5 4 -7 -3 -4 -13 3 -11 11 -22 18 -25 22 -8 78 4 101 23 22
18 44 71 44 107 0 12 5 24 12 26 14 5 4 38 -12 38 -5 0 -10 -9 -10 -20 0 -11
-4 -20 -9 -20 -5 0 -16 -3 -25 -6 -10 -4 -16 -1 -16 8 0 13 -15 35 -52 77 -7
8 -18 23 -24 34 -16 28 -88 58 -104 44 -10 -9 -11 -9 -6 1 4 7 1 12 -8 12 -8
0 -20 -8 -25 -17 -6 -10 -11 -15 -11 -11 0 4 -12 3 -26 -2 -15 -6 -23 -6 -19
-1 3 5 -4 12 -15 16 -11 3 -20 11 -20 16 0 5 -7 9 -16 9 -9 0 -12 -5 -8 -12 4
-7 3 -8 -4 -4 -7 4 -12 14 -12 21 0 14 -15 20 -65 27 -13 2 -21 12 -24 28 -1
14 -6 27 -11 30 -13 8 1 70 16 70 17 0 18 17 2 23 -9 3 -8 10 6 26 11 12 20
31 21 43 1 11 10 28 21 36 15 12 16 14 2 9 -12 -4 -15 -2 -11 8 3 8 10 12 16
8 6 -4 7 -1 1 8 -14 22 -11 97 4 92 6 -3 12 2 12 11 0 9 -8 20 -17 23 -10 4
-21 11 -25 17 -11 17 -8 126 4 123 23 -5 17 21 -7 27 -14 4 -25 11 -25 16 0 5
8 6 18 3 15 -6 15 -5 3 10 -11 14 -11 18 5 24 16 6 16 7 -2 15 -14 6 -12 7 11
4 l30 -4 -22 18 -22 17 24 11 c17 8 23 17 18 28 -4 12 -8 13 -14 3 -11 -19
-20 -6 -29 40 -6 34 -4 41 14 49 18 9 18 11 4 11 -21 1 -24 21 -6 39 7 7 9 13
5 13 -4 1 -11 3 -17 4 -5 1 -13 3 -17 4 -5 1 -2 5 5 10 11 6 10 12 -4 25 -10
11 -13 20 -7 24 5 4 13 16 17 27 6 16 9 17 17 5 7 -11 8 -7 3 12 -7 32 16 64
34 46 8 -8 9 -5 5 11 -6 22 -23 39 -23 22 0 -5 -11 -8 -25 -6 -14 1 -25 -2
-25 -7 0 -5 -4 -7 -9 -3 -5 3 -11 -4 -13 -16 -2 -12 -11 -23 -21 -25 -15 -2
-16 0 -5 14 7 9 8 13 2 9 -10 -6 -29 44 -25 66 0 4 -6 7 -14 7 -9 0 -18 7 -22
16 -5 13 -37 32 -63 39 -3 0 -15 6 -26 13 -12 6 -24 9 -27 6 -3 -3 -3 3 -1 13
4 13 -3 23 -21 33 -14 7 -21 16 -15 20 5 3 -4 14 -20 23 -25 15 -29 16 -24 2
3 -8 1 -15 -5 -15 -6 0 -11 9 -11 21 0 11 -4 18 -9 15 -5 -4 -7 3 -4 14 3 11
1 20 -5 20 -6 0 -12 -8 -15 -17 -2 -11 -7 -3 -11 20 -5 20 -12 37 -16 37 -14
0 -17 47 -5 70 12 22 13 22 24 4 11 -18 12 -17 7 5 -3 15 2 31 15 44 18 20 24
43 19 77 -1 8 1 12 6 8 12 -12 33 12 28 30 -4 13 -2 13 11 -3 17 -20 17 -20
10 4 -6 20 -4 23 10 18 11 -5 15 -3 12 5 -2 7 -14 12 -25 10 -30 -4 -28 19 4
43 24 18 25 20 8 32 -10 7 -12 13 -6 13 7 0 12 5 12 11 0 6 -7 9 -15 5 -17 -6
-18 -4 -9 19 6 13 9 14 16 3 8 -10 9 -10 5 2 -2 8 -13 15 -25 14 -13 0 -22 7
-25 22 -3 16 0 21 10 17 17 -7 16 7 -2 31 -13 17 -15 18 -15 3 0 -9 -3 -17 -7
-17 -14 1 -56 40 -50 47 4 3 2 12 -4 20 -9 10 -6 13 17 13 22 0 25 3 14 9 -8
6 -17 8 -21 5 -9 -5 -21 25 -14 37 4 5 -2 6 -12 2 -15 -5 -16 -3 -5 8 17 18
15 30 -3 23 -19 -8 -20 20 -2 37 11 11 12 79 0 79 -2 0 -13 -9 -25 -20 -12
-11 -27 -20 -32 -20 -6 0 -3 7 7 14 23 18 22 24 -5 28 -19 3 -17 6 15 17 42
14 71 2 60 -26 -5 -12 -1 -14 17 -8 15 5 20 4 16 -4 -11 -17 10 -13 28 5 19
19 20 25 3 19 -8 -4 -12 6 -13 29 -1 31 2 35 31 40 23 5 32 12 31 24 0 9 4 16
11 15 6 -2 11 6 10 17 -1 17 -3 18 -17 5 -21 -19 -36 -19 -43 -1 -3 8 -15 14
-26 13 -13 -1 -17 -5 -11 -12 6 -7 2 -15 -11 -23 -18 -12 -19 -10 -13 14 5 20
4 25 -6 19 -8 -5 -11 -3 -8 6 3 8 17 14 36 13 21 -1 29 3 25 11 -2 7 1 16 8
21 8 5 10 3 4 -6 -5 -9 -4 -11 3 -6 9 5 9 13 2 26 -6 11 -6 21 -1 25 5 3 12
-3 14 -12 4 -16 11 40 8 60 -1 5 3 6 9 2 5 -3 10 -2 10 3 0 5 6 9 13 10 6 0
27 3 44 6 18 3 35 2 37 -2 3 -5 -4 -9 -15 -9 -11 -1 -36 -7 -55 -13 -29 -10
-34 -15 -28 -33 3 -12 13 -29 21 -37 14 -13 14 -13 4 8 -10 18 -3 30 12 20 1
-1 12 4 23 10 18 9 25 8 38 -7 14 -16 24 -42 10 -28 -3 3 -14 -3 -25 -14 -11
-11 -25 -16 -35 -12 -12 4 -15 3 -10 -5 4 -6 2 -21 -4 -32 -9 -17 -8 -20 7
-20 13 0 15 -2 5 -9 -10 -6 -10 -10 2 -21 13 -10 19 -8 35 11 14 17 16 26 8
31 -8 5 -6 8 6 8 9 0 17 4 17 9 0 5 -12 8 -26 5 -21 -4 -23 -2 -12 9 15 17 48
10 68 -15 15 -19 16 -19 37 0 13 10 20 22 16 26 -4 4 3 9 15 13 12 3 22 9 22
14 0 5 5 9 11 9 6 0 9 -7 5 -15 -3 -8 -1 -15 4 -15 21 0 9 31 -16 40 -28 11
-49 3 -49 -19 0 -8 -7 -16 -15 -18 -13 -4 -13 -3 0 6 13 9 13 12 -3 28 -15 16
-19 16 -27 3 -5 -8 -11 -12 -15 -9 -3 3 4 16 15 29 l21 24 6 -22 c3 -12 9 -19
14 -16 11 7 -22 53 -38 54 -7 0 -10 7 -7 14 4 11 23 14 74 13 38 -1 66 -5 64
-9 -3 -4 0 -8 5 -8 6 0 11 5 11 11 0 6 7 8 16 5 11 -4 15 -2 11 8 -4 10 -1 13
9 9 7 -3 14 -9 14 -14 0 -5 7 -9 15 -9 8 0 15 5 15 10 0 15 26 12 40 -5 9 -11
15 -12 25 -2 9 8 10 16 3 24 -7 9 -4 11 11 10 11 0 17 -5 15 -9 -8 -13 21 -9
35 5 11 10 14 10 18 0 8 -23 25 -14 18 10 -6 18 -5 20 6 10 23 -23 30 -14 12
15 -17 27 -17 27 2 11 11 -9 25 -15 31 -12z m-86 -18 c0 -5 -4 -9 -10 -9 -5 0
-10 7 -10 16 0 8 5 12 10 9 6 -3 10 -10 10 -16z m445 -18 c-8 -14 -25 -14 -25
0 0 5 5 7 10 4 6 -3 10 -1 10 6 0 7 3 10 6 6 3 -3 3 -10 -1 -16z m180 -1 c-3
-5 -12 -10 -18 -10 -7 0 -6 4 3 10 19 12 23 12 15 0z m79 -47 c3 -7 -1 -13 -8
-13 -8 0 -16 6 -19 13 -3 8 1 14 9 14 7 0 15 -6 18 -14z m59 -33 c-3 -12 -8
-19 -11 -16 -5 6 5 36 12 36 2 0 2 -9 -1 -20z m-1153 -11 c0 -6 -4 -7 -10 -4
-5 3 -10 11 -10 16 0 6 5 7 10 4 6 -3 10 -11 10 -16z m-170 -33 c0 -3 -4 -8
-10 -11 -5 -3 -10 -1 -10 4 0 6 5 11 10 11 6 0 10 -2 10 -4z m1380 -16 c0 -5
-2 -10 -4 -10 -3 0 -8 5 -11 10 -3 6 -1 10 4 10 6 0 11 -4 11 -10z m-1440 -14
c0 -3 -4 -8 -10 -11 -5 -3 -10 -1 -10 4 0 6 5 11 10 11 6 0 10 -2 10 -4z
m2250 -16 c0 -5 -2 -10 -4 -10 -3 0 -8 5 -11 10 -3 6 -1 10 4 10 6 0 11 -4 11
-10z m-16 -26 c3 -8 2 -12 -4 -9 -6 3 -10 10 -10 16 0 14 7 11 14 -7z m-687
-39 c0 -8 -4 -12 -9 -9 -5 3 -6 10 -3 15 9 13 12 11 12 -6z m-1581 -10 c-4
-10 1 -15 14 -15 11 0 20 -2 20 -4 0 -2 3 -11 6 -20 4 -11 1 -16 -10 -16 -9 0
-16 7 -16 16 0 14 -3 14 -15 4 -13 -11 -14 -10 -9 5 5 13 4 16 -5 10 -10 -6
-11 -3 -2 14 13 24 26 29 17 6z m114 -5 c0 -5 -4 -10 -9 -10 -6 0 -13 5 -16
10 -3 6 1 10 9 10 9 0 16 -4 16 -10z m2197 -5 c9 -24 -1 -27 -15 -5 -8 13 -8
20 -2 20 6 0 13 -7 17 -15z m-2342 -245 c-3 -5 -12 -10 -18 -10 -7 0 -6 4 3
10 19 12 23 12 15 0z m63 -17 c2 -7 -4 -13 -13 -13 -9 0 -14 4 -11 9 4 5 0 12
-6 15 -7 3 -4 5 6 3 11 -1 21 -8 24 -14z m77 -239 c9 3 11 -2 7 -16 -4 -15 -7
-17 -13 -6 -7 11 -11 10 -19 -2 -8 -12 -10 -10 -10 11 0 30 13 48 18 24 2 -9
10 -14 17 -11z m1632 -316 c-3 -7 -5 -2 -5 12 0 14 2 19 5 13 2 -7 2 -19 0
-25z m-3046 -11 c-10 -9 -11 -8 -5 6 3 10 9 15 12 12 3 -3 0 -11 -7 -18z
m1319 -2 c0 -8 -2 -15 -4 -15 -2 0 -6 7 -10 15 -3 8 -1 15 4 15 6 0 10 -7 10
-15z m1759 -25 c0 -10 -3 -8 -9 5 -12 27 -12 43 0 25 5 -8 9 -22 9 -30z m-59
-56 c0 -8 -5 -12 -10 -9 -6 4 -8 11 -5 16 9 14 15 11 15 -7z m-445 -54 c3 -5
1 -10 -4 -10 -6 0 -11 5 -11 10 0 6 2 10 4 10 3 0 8 -4 11 -10z m400 -20 c-3
-5 1 -10 9 -10 8 0 18 -4 21 -10 3 -5 -1 -8 -9 -5 -9 3 -23 7 -32 10 -16 5
-10 25 7 25 6 0 7 -4 4 -10z m-835 -20 c0 -5 -2 -10 -4 -10 -3 0 -8 5 -11 10
-3 6 -1 10 4 10 6 0 11 -4 11 -10z m-420 -214 c-5 -15 -14 -25 -19 -22 -11 7
-2 45 13 62 16 17 19 -6 6 -40z m2202 -30 c1 -16 -1 -31 -7 -33 -5 -1 -11 16
-13 39 -3 48 14 42 20 -6z m-1263 -52 c2 -2 -21 -4 -51 -4 -31 0 -71 -3 -89
-6 -24 -5 -31 -3 -24 4 17 18 146 22 164 6z m1278 -44 c1 -17 -2 -30 -6 -30
-13 0 -19 49 -7 54 6 2 11 5 11 5 0 1 1 -13 2 -29z m-1242 -5 c22 -10 44 -17
48 -16 5 1 6 -3 3 -8 -4 -6 -18 -6 -38 -1 -17 5 -34 7 -39 4 -4 -2 -11 2 -16
9 -13 21 -43 29 -43 11 0 -8 -5 -12 -10 -9 -18 11 10 35 34 31 12 -2 39 -12
61 -21z m405 1 c0 -3 -4 -8 -10 -11 -5 -3 -10 -1 -10 4 0 6 5 11 10 11 6 0 10
-2 10 -4z m-427 -82 c-6 -16 -6 -16 -27 -8 -21 8 -9 33 14 27 11 -3 16 -11 13
-19z m-1506 -20 c-3 -3 -12 -4 -19 -1 -8 3 -5 6 6 6 11 1 17 -2 13 -5z m68
-14 c2 -4 -7 -5 -20 -2 -14 2 -25 8 -25 12 0 10 38 1 45 -10z m1385 -70 c9
-16 8 -20 -5 -20 -8 0 -15 9 -15 20 0 11 2 20 5 20 2 0 9 -9 15 -20z m-1410
-21 c0 -5 -7 -9 -15 -9 -9 0 -15 9 -15 21 0 18 2 19 15 9 8 -7 15 -16 15 -21z
m937 -4 c8 14 11 14 28 -5 18 -20 18 -20 -3 -20 -11 0 -22 -5 -24 -12 -7 -19
3 -58 13 -52 5 3 9 0 9 -5 0 -6 3 -10 8 -9 16 5 72 -12 72 -22 0 -5 -14 -10
-31 -10 -17 0 -28 -4 -24 -10 3 -5 2 -10 -2 -10 -14 0 -59 56 -55 69 2 6 -5
11 -16 11 -11 0 -25 12 -33 28 -18 36 -23 50 -11 33 8 -11 11 -9 17 8 6 21 8
21 25 6 17 -15 19 -15 27 0z m-657 1 c0 -11 -19 -15 -25 -6 -3 5 1 10 9 10 9
0 16 -2 16 -4z m-131 -45 c26 -26 39 -46 35 -55 -3 -9 -10 -14 -14 -11 -4 3
-34 -4 -65 -15 -82 -28 -91 -26 -61 13 13 17 28 46 32 62 13 58 20 58 73 6z
m1071 -54 c0 -4 4 -6 9 -3 5 3 14 -1 20 -8 10 -12 8 -13 -11 -8 -12 3 -34 11
-48 19 -20 10 -21 13 -6 13 13 0 16 5 12 18 -5 14 -4 14 9 -2 8 -11 15 -24 15
-29z m330 -4 c0 -17 -24 -44 -36 -39 -22 8 -64 -11 -58 -27 3 -10 -3 -14 -23
-15 -15 0 -35 -1 -43 -2 -33 -3 -72 8 -81 21 -8 12 -10 12 -19 -1 -6 -9 -10
-10 -10 -3 0 19 11 21 86 14 l71 -6 38 36 c25 24 44 35 56 32 11 -3 19 -7 19
-10z m-1418 -50 c-6 -2 -10 -9 -6 -14 3 -5 -2 -9 -10 -9 -9 0 -16 7 -16 15 0
9 9 15 23 14 12 0 16 -3 9 -6z m1373 -13 c-3 -5 -10 -10 -16 -10 -5 0 -9 5 -9
10 0 6 7 10 16 10 8 0 12 -4 9 -10z m-505 -10 c0 -5 -2 -10 -4 -10 -3 0 -8 5
-11 10 -3 6 -1 10 4 10 6 0 11 -4 11 -10z m176 -120 c3 0 4 7 0 15 -3 9 0 15
9 15 11 0 12 -6 5 -24 -5 -13 -8 -26 -7 -28 1 -2 -3 2 -9 9 -6 7 -16 13 -23
13 -12 0 -15 23 -4 34 4 4 11 -2 15 -14 4 -11 10 -20 14 -20z m-53 17 c3 -8
-1 -14 -9 -14 -15 0 -18 9 -7 20 9 9 10 9 16 -6z m647 -11 c0 -2 -7 -7 -16
-10 -8 -3 -12 -2 -9 4 6 10 25 14 25 6z m605 -540 c5 -41 3 -77 -5 -100 -12
-38 -23 -99 -22 -128 1 -10 -3 -18 -8 -18 -5 0 -25 -16 -46 -35 -20 -19 -40
-35 -44 -35 -10 0 -4 60 18 175 12 67 25 103 49 139 18 26 33 52 33 57 0 5 4
9 9 9 5 0 12 -29 16 -64z m372 32 c-3 -8 -6 -5 -6 6 -1 11 2 17 5 13 3 -3 4
-12 1 -19z m-777 -102 c0 -3 -4 -8 -10 -11 -5 -3 -10 -1 -10 4 0 6 5 11 10 11
6 0 10 -2 10 -4z m421 -143 c0 -5 2 -15 4 -24 1 -9 -1 -23 -6 -30 -7 -12 -9
-11 -9 1 0 8 -3 25 -6 38 -4 13 -2 22 5 22 6 0 11 -3 12 -7z m209 -17 c0 -8
-4 -18 -10 -21 -5 -3 -10 3 -10 14 0 12 5 21 10 21 6 0 10 -6 10 -14z m-680
-26 c0 -5 -5 -10 -11 -10 -5 0 -7 5 -4 10 3 6 8 10 11 10 2 0 4 -4 4 -10z
m606 -15 c3 -8 2 -27 -3 -42 -8 -23 -16 -28 -44 -29 -19 -1 -45 -6 -57 -13
-12 -6 -23 -9 -23 -6 -1 3 -2 9 -3 14 -2 15 -16 26 -16 13 0 -7 -4 -12 -10
-12 -5 0 -10 11 -10 25 0 18 5 25 19 25 11 0 32 5 48 12 15 6 36 10 46 9 9 -1
17 3 17 8 0 16 30 13 36 -4z m-660 -47 c10 -12 13 -18 7 -14 -7 4 -13 2 -13
-3 0 -6 -4 -11 -9 -11 -5 0 -8 11 -8 25 0 30 -1 30 23 3z m449 -48 c-14 -6
-15 -9 -5 -9 9 -1 33 -13 54 -27 26 -18 53 -27 82 -28 40 -1 44 -3 44 -26 0
-29 -19 -67 -20 -40 -1 12 -4 11 -15 -4 -8 -10 -12 -22 -10 -26 4 -6 -23 -18
-55 -24 -3 -1 -10 -4 -16 -8 -28 -19 -77 16 -100 71 -18 42 -18 78 -1 88 8 4
16 16 20 26 3 9 14 17 24 16 16 0 16 -1 -2 -9z m-650 -20 c3 -5 1 -10 -4 -10
-6 0 -11 5 -11 10 0 6 2 10 4 10 3 0 8 -4 11 -10z m-615 -44 c0 -3 -4 -8 -10
-11 -5 -3 -10 -1 -10 4 0 6 5 11 10 11 6 0 10 -2 10 -4z m665 -24 c-3 -3 -11
0 -18 7 -9 10 -8 11 6 5 10 -3 15 -9 12 -12z m131 -9 c-10 -10 -19 5 -10 18 6
11 8 11 12 0 2 -7 1 -15 -2 -18z m689 8 c3 -5 2 -12 -3 -15 -5 -3 -9 1 -9 9 0
17 3 19 12 6z m-789 -22 c3 -6 0 -15 -7 -20 -19 -12 -32 -11 -24 1 3 6 1 10
-5 10 -6 0 -8 5 -5 10 8 13 32 13 41 -1z m-681 -39 c3 -5 1 -10 -4 -10 -6 0
-11 5 -11 10 0 6 2 10 4 10 3 0 8 -4 11 -10z m748 -19 c-3 -13 -11 -17 -24
-14 -18 5 -19 6 -2 19 25 19 32 17 26 -5z m27 -39 c0 -5 -9 -17 -21 -28 -21
-19 -21 -19 -8 9 12 26 29 37 29 19z m-534 -18 c-3 -9 -6 -20 -6 -25 0 -5 -4
-9 -10 -9 -5 0 -10 11 -10 25 0 16 6 25 16 25 11 0 14 -5 10 -16z m1114 -54
c0 -5 -5 -10 -11 -10 -5 0 -7 5 -4 10 3 6 8 10 11 10 2 0 4 -4 4 -10z m-625
-62 c-9 -6 -19 -7 -22 -4 -4 3 -1 6 6 6 7 0 9 4 6 10 -4 6 1 7 11 3 15 -6 15
-7 -1 -15z m-918 -8 c-3 -11 0 -23 5 -27 6 -3 8 -1 5 4 -4 6 -1 13 7 16 9 4
13 0 11 -11 -1 -9 3 -23 9 -31 9 -12 8 -13 -4 -6 -12 6 -13 5 -2 -6 17 -18 15
-25 -7 -25 -11 0 -17 4 -15 8 3 4 0 8 -5 8 -6 0 -11 -7 -11 -16 0 -8 -5 -12
-10 -9 -6 4 -7 11 -4 17 5 7 1 9 -9 5 -11 -4 -17 -1 -17 8 0 20 20 29 33 16 6
-6 15 -11 20 -11 5 0 -3 10 -17 21 -21 17 -25 24 -14 30 11 7 10 11 -2 19 -12
8 -10 10 9 10 18 0 22 -4 18 -20z m843 -8 c0 -12 -3 -12 -15 -2 -8 7 -15 13
-15 15 0 1 7 2 15 2 8 0 15 -7 15 -15z m27 -14 c-3 -7 -5 -2 -5 12 0 14 2 19
5 13 2 -7 2 -19 0 -25z m-1232 5 c-2 -10 -4 -25 -5 -33 -1 -10 -4 -9 -9 5 -5
11 -4 25 1 33 14 16 17 15 13 -5z m27 -51 c-8 -23 -22 2 -15 28 6 22 7 22 13
4 4 -10 5 -25 2 -32z m119 31 c8 -9 9 -14 3 -10 -7 4 -17 0 -24 -8 -13 -16
-35 -21 -26 -7 3 5 -2 9 -11 9 -12 0 -11 -5 7 -19 12 -10 17 -19 11 -19 -20
-3 -26 -4 -38 -12 -8 -5 -13 -4 -13 3 0 6 -4 8 -10 5 -13 -8 -13 15 0 35 6 9
5 17 -3 23 -8 6 -7 7 4 4 12 -4 77 5 85 12 1 1 8 -7 15 -16z m659 7 c0 -5 -5
-10 -11 -10 -5 0 -7 5 -4 10 3 6 8 10 11 10 2 0 4 -4 4 -10z m2 -70 c-1 -6 8
-20 20 -30 13 -10 20 -22 16 -26 -4 -4 -16 4 -27 17 -11 13 -20 19 -21 12 0
-12 -59 -8 -72 5 -8 9 12 37 32 44 21 7 56 -7 52 -22z m305 -34 c0 -15 -21
-16 -34 -1 -4 4 -2 5 5 1 6 -4 12 -2 12 3 0 6 4 11 8 11 5 0 9 -6 9 -14z
m-437 -28 c0 -4 10 -8 23 -8 18 0 19 -2 7 -11 -12 -9 -13 -12 -1 -16 11 -5 11
-7 0 -14 -11 -7 -9 -10 9 -15 12 -4 22 -11 22 -16 0 -5 5 -6 11 -2 8 5 8 1 0
-14 -9 -17 -8 -19 9 -15 11 3 20 0 20 -6 0 -6 6 -10 13 -8 6 1 11 -6 11 -15
-2 -21 0 -22 29 -7 18 10 18 7 -5 -16 -15 -15 -25 -31 -22 -36 8 -14 -19 -10
-40 6 -17 13 -22 13 -42 0 -20 -13 -22 -12 -27 6 -5 20 -27 18 -27 -2 0 -6 6
-7 13 -2 6 4 4 -5 -5 -19 -11 -17 -14 -29 -8 -33 6 -3 10 0 10 8 0 25 48 30
71 9 17 -17 18 -20 5 -25 -9 -4 -15 -1 -13 4 1 6 -8 13 -21 15 -20 3 -21 1
-12 -15 15 -28 14 -29 -27 -28 -34 0 -96 27 -65 27 7 0 10 4 7 10 -4 6 1 7 11
3 14 -5 16 -3 11 12 -4 9 -2 25 5 33 10 12 10 14 1 8 -7 -4 -13 -2 -13 3 0 6
6 11 14 11 8 0 24 9 37 21 13 11 18 18 12 14 -7 -3 -13 -1 -13 4 0 16 -35 14
-49 -2 -6 -8 -7 -18 -3 -23 4 -4 -1 -2 -10 5 -20 15 -24 41 -6 41 6 0 3 7 -8
15 -15 12 -16 14 -2 9 15 -5 17 0 14 32 -2 22 1 44 6 51 10 13 48 14 48 1z
m130 -4 c0 -8 -5 -12 -10 -9 -6 4 -8 11 -5 16 9 14 15 11 15 -7z m-10 -46 c0
-3 -10 -4 -22 0 -14 3 -19 2 -14 -7 4 -6 11 -9 15 -7 13 9 32 -10 26 -27 -5
-12 -13 -8 -41 21 -18 20 -31 38 -28 41 3 3 9 0 13 -7 6 -10 11 -9 21 3 11 13
15 13 21 3 5 -7 9 -16 9 -20z m295 12 c-3 -5 -11 -10 -16 -10 -6 0 -7 5 -4 10
3 6 11 10 16 10 6 0 7 -4 4 -10z m-1028 -26 c-3 -3 -12 -4 -19 -1 -8 3 -5 6 6
6 11 1 17 -2 13 -5z m187 -2 c3 -5 2 -18 -1 -30 -5 -21 -6 -21 -18 -5 -7 9
-11 23 -8 30 6 15 19 17 27 5z m-234 -17 c0 -8 -4 -15 -10 -15 -5 0 -10 7 -10
15 0 8 5 15 10 15 6 0 10 -7 10 -15z m315 5 c-4 -6 -11 -8 -16 -5 -5 4 -9 1
-9 -5 0 -6 -5 -8 -11 -4 -8 4 -7 9 2 15 19 12 42 11 34 -1z m272 -86 c-3 -3
-12 -4 -19 -1 -8 3 -5 6 6 6 11 1 17 -2 13 -5z m1 -26 c-2 -6 -10 -14 -16 -16
-7 -2 -10 2 -6 12 7 18 28 22 22 4z m-61 -93 c-15 -16 -19 -13 -11 9 3 9 10
13 15 10 5 -3 3 -11 -4 -19z m153 -18 c0 -7 -10 -13 -22 -14 -20 -2 -21 -1 -5
8 9 6 14 15 11 21 -4 7 -2 8 4 4 7 -4 12 -13 12 -19z m-120 1 c0 -10 2 -10 9
0 6 10 10 10 21 -3 7 -8 20 -15 28 -15 11 0 13 -3 6 -10 -16 -16 -88 2 -92 23
-2 10 3 17 12 17 9 0 16 -6 16 -12z m137 -20 c-3 -8 -6 -5 -6 6 -1 11 2 17 5
13 3 -3 4 -12 1 -19z m-23 -25 c9 4 16 2 16 -3 0 -6 -12 -10 -27 -10 -35 0
-58 -14 -59 -37 -4 -63 -4 -65 -19 -59 -9 3 -19 -3 -26 -15 -10 -20 -9 -20 19
-5 16 8 33 12 37 8 4 -4 6 3 3 15 -5 20 -4 21 15 10 12 -7 28 -20 35 -29 7
-10 22 -18 33 -18 13 0 19 -7 20 -22 0 -13 3 -17 6 -10 2 6 10 9 16 5 9 -5 9
-3 0 8 -8 9 -9 20 -3 29 8 13 10 12 10 -2 0 -9 9 -19 19 -23 11 -3 22 -12 25
-20 6 -17 -10 -30 -19 -15 -4 6 -11 7 -17 4 -7 -4 -6 -9 2 -14 8 -5 5 -9 -9
-13 -12 -3 -19 -1 -16 3 3 5 1 11 -5 15 -5 3 -10 -1 -10 -9 0 -9 -9 -16 -20
-16 -21 0 -29 -33 -10 -45 6 -3 10 -1 10 5 0 6 5 8 11 4 8 -4 7 -9 -2 -15 -18
-11 -50 8 -43 26 5 11 -1 15 -22 14 -18 -1 -22 -3 -11 -6 10 -3 17 -12 16 -21
-3 -35 2 -41 31 -39 16 1 30 -2 31 -8 0 -5 -14 -8 -32 -7 -29 4 -32 2 -20 -12
12 -14 12 -16 -1 -11 -9 4 -18 -3 -25 -16 -8 -20 -10 -21 -16 -5 -4 10 -3 15
3 11 6 -3 10 0 10 8 0 20 -37 29 -44 11 -6 -15 -36 -20 -36 -6 0 4 6 14 13 21
10 11 9 13 -6 8 -15 -6 -16 -4 -7 13 8 15 8 25 0 38 -9 15 -10 14 -5 -5 4 -14
2 -23 -4 -23 -6 0 -11 -7 -11 -15 0 -13 -12 -19 -32 -16 -4 0 -5 -5 -3 -12 3
-6 1 -16 -3 -22 -12 -16 -52 -36 -62 -30 -5 3 -11 -4 -15 -15 -4 -11 -15 -20
-27 -20 -14 0 -18 5 -14 15 3 8 1 15 -4 15 -6 0 -10 -4 -10 -10 0 -5 -16 -10
-35 -10 -24 0 -35 -5 -35 -15 0 -8 -7 -15 -16 -15 -8 0 -12 5 -9 10 3 6 -1 10
-9 10 -22 0 -20 13 4 35 28 25 25 35 -11 35 -24 0 -30 -4 -25 -15 8 -21 0 -19
-25 6 -11 11 -27 18 -36 15 -11 -5 -14 -2 -9 10 5 14 4 15 -9 4 -12 -10 -15
-10 -15 0 0 12 -28 39 -41 40 -3 0 -6 -7 -6 -15 0 -8 6 -15 14 -15 7 0 13 -5
13 -11 0 -6 -16 -1 -35 11 -39 24 -55 20 -55 -16 0 -13 -4 -24 -10 -24 -5 0
-7 7 -4 15 4 10 0 13 -16 10 -13 -2 -32 1 -44 7 -17 9 -19 8 -8 -3 6 -7 12
-22 12 -33 0 -18 -1 -18 -19 2 -10 12 -21 19 -25 15 -3 -3 -6 2 -6 12 0 10 3
15 7 12 3 -4 15 1 26 10 12 11 17 12 12 4 -5 -10 -4 -12 3 -7 18 11 15 39 -3
32 -27 -10 -16 20 13 34 l27 14 -25 4 c-14 2 -29 10 -33 18 -5 8 -12 12 -18 9
-15 -10 -10 32 6 45 12 10 15 10 16 -1 0 -11 2 -11 6 1 11 26 27 36 61 35 21
0 39 -7 47 -19 18 -24 49 -14 42 14 -3 13 0 20 9 20 8 0 14 5 14 11 0 7 10 9
25 7 14 -3 22 -1 18 5 -3 5 3 6 17 2 14 -4 20 -3 17 3 -8 12 20 9 56 -6 35
-15 54 -15 62 -2 3 6 -1 10 -10 10 -9 0 -13 5 -10 10 10 15 36 -8 33 -29 -2
-12 4 -15 27 -13 38 4 61 22 43 33 -7 4 -18 3 -25 -3 -16 -13 -28 -4 -18 12 6
10 36 9 65 -3 37 -16 65 -12 75 11 5 12 14 22 20 23 5 0 17 2 26 4 14 2 14 -1
5 -21 -10 -22 -12 -22 -23 -7 -7 9 -13 12 -13 6 0 -24 60 -37 89 -19 11 7 11
10 0 17 -12 8 -11 11 1 19 13 9 13 11 0 20 -11 7 -8 9 14 8 17 -2 31 3 34 11
3 10 6 11 12 1 4 -7 15 -10 24 -7z m67 -6 c-10 -9 -11 -8 -5 6 3 10 9 15 12
12 3 -3 0 -11 -7 -18z m-311 -37 c0 -5 -5 -10 -11 -10 -5 0 -7 5 -4 10 3 6 8
10 11 10 2 0 4 -4 4 -10z m248 -24 c31 -10 28 -22 -7 -21 -19 0 -27 4 -24 12
3 7 0 13 -7 13 -6 0 -8 5 -4 11 4 7 9 7 13 1 3 -5 16 -12 29 -16z m112 -16 c0
-5 -5 -10 -11 -10 -5 0 -7 5 -4 10 3 6 8 10 11 10 2 0 4 -4 4 -10z m-70 -40
c0 -5 -4 -10 -10 -10 -5 0 -10 5 -10 10 0 6 5 10 10 10 6 0 10 -4 10 -10z
m-804 -137 c-3 -4 -6 -1 -6 5 0 7 -6 12 -12 12 -7 0 -14 12 -15 27 l-1 26 20
-32 c11 -17 18 -35 14 -38z m-6 -23 c0 -5 -5 -10 -11 -10 -5 0 -7 5 -4 10 3 6
8 10 11 10 2 0 4 -4 4 -10z m642 -92 c-7 -7 -12 -8 -12 -2 0 14 12 26 19 19 2
-3 -1 -11 -7 -17z m138 18 c0 -11 -19 -15 -25 -6 -3 5 1 10 9 10 9 0 16 -2 16
-4z m-190 -26 c0 -5 -5 -10 -11 -10 -5 0 -7 5 -4 10 3 6 8 10 11 10 2 0 4 -4
4 -10z m-58 -32 c-7 -7 -12 -8 -12 -2 0 14 12 26 19 19 2 -3 -1 -11 -7 -17z
m698 -318 c0 -5 -5 -10 -11 -10 -5 0 -7 5 -4 10 3 6 8 10 11 10 2 0 4 -4 4
-10z m33 -99 c3 -14 0 -19 -12 -19 -9 0 -24 -3 -33 -7 -28 -11 -21 9 10 27 15
10 28 18 28 18 1 0 4 -9 7 -19z m-157 -31 c-14 -17 -26 -29 -26 -25 0 12 42
66 47 61 3 -3 -6 -19 -21 -36z m-69 -86 c-3 -3 -12 -4 -19 -1 -8 3 -5 6 6 6
11 1 17 -2 13 -5z m327 -3 c3 -5 0 -11 -8 -14 -8 -3 -17 1 -20 9 -6 15 19 20
28 5z m-119 -143 c-25 -15 -45 -19 -45 -8 0 5 10 11 23 13 39 8 42 7 22 -5z
m-60 -28 c-3 -5 -12 -10 -18 -10 -7 0 -6 4 3 10 19 12 23 12 15 0z m-150 -20
c3 -5 1 -10 -4 -10 -6 0 -11 5 -11 10 0 6 2 10 4 10 3 0 8 -4 11 -10z m235
-12 c0 -10 -17 -10 -24 0 -3 5 1 9 9 9 8 0 15 -4 15 -9z m178 -29 c-7 -5 -19
-9 -27 -9 -11 0 -11 3 -1 14 6 8 18 12 27 9 12 -5 12 -7 1 -14z m-533 -9 c3
-5 1 -10 -4 -10 -6 0 -11 5 -11 10 0 6 2 10 4 10 3 0 8 -4 11 -10z"/>
<path d="M3205 5090 c3 -5 8 -10 11 -10 2 0 4 5 4 10 0 6 -5 10 -11 10 -5 0
-7 -4 -4 -10z"/>
<path d="M2890 5056 c0 -2 7 -7 16 -10 8 -3 12 -2 9 4 -6 10 -25 14 -25 6z"/>
<path d="M3430 4940 c0 -5 4 -10 9 -10 6 0 13 5 16 10 3 6 -1 10 -9 10 -9 0
-16 -4 -16 -10z"/>
<path d="M2740 4930 c0 -5 7 -10 16 -10 8 0 12 5 9 10 -3 6 -10 10 -16 10 -5
0 -9 -4 -9 -10z"/>
<path d="M3405 4920 c3 -5 14 -10 23 -10 15 0 15 2 2 10 -20 13 -33 13 -25 0z"/>
<path d="M2337 4903 c-4 -3 -7 -11 -7 -17 0 -6 5 -5 12 2 6 6 9 14 7 17 -3 3
-9 2 -12 -2z"/>
<path d="M2470 4873 c0 -5 4 -15 10 -23 11 -18 25 -7 17 15 -6 15 -27 21 -27
8z"/>
<path d="M2510 4855 c0 -8 4 -15 8 -15 5 0 9 7 9 15 0 8 -4 15 -9 15 -4 0 -8
-7 -8 -15z"/>
<path d="M2465 4830 c-8 -13 15 -24 27 -12 6 6 4 11 -6 15 -8 3 -18 2 -21 -3z"/>
<path d="M2385 4810 c-3 -5 -1 -10 4 -10 6 0 11 5 11 10 0 6 -2 10 -4 10 -3 0
-8 -4 -11 -10z"/>
<path d="M2360 4790 c8 -5 20 -10 25 -10 6 0 3 5 -5 10 -8 5 -19 10 -25 10 -5
0 -3 -5 5 -10z"/>
<path d="M2560 4789 c0 -5 5 -7 10 -4 6 3 10 8 10 11 0 2 -4 4 -10 4 -5 0 -10
-5 -10 -11z"/>
<path d="M2513 4775 c-17 -18 -16 -22 2 -22 8 0 15 9 15 19 0 21 -1 22 -17 3z"/>
<path d="M2576 4728 c3 -4 12 -8 20 -8 8 0 14 4 14 8 0 4 -9 8 -19 8 -11 0
-17 -4 -15 -8z"/>
<path d="M2498 4713 c6 -2 18 -2 25 0 6 3 1 5 -13 5 -14 0 -19 -2 -12 -5z"/>
<path d="M2320 4700 c0 -5 7 -10 16 -10 8 0 12 5 9 10 -3 6 -10 10 -16 10 -5
0 -9 -4 -9 -10z"/>
<path d="M3835 4690 c3 -5 8 -10 11 -10 2 0 4 5 4 10 0 6 -5 10 -11 10 -5 0
-7 -4 -4 -10z"/>
<path d="M2310 4664 c0 -8 5 -12 10 -9 6 3 10 10 10 16 0 5 -4 9 -10 9 -5 0
-10 -7 -10 -16z"/>
<path d="M2275 4650 c-3 -6 1 -7 9 -4 18 7 21 14 7 14 -6 0 -13 -4 -16 -10z"/>
<path d="M2530 4638 c0 -4 4 -8 9 -8 6 0 12 4 15 8 3 5 -1 9 -9 9 -8 0 -15 -4
-15 -9z"/>
<path d="M2286 4615 c4 -9 0 -15 -10 -15 -9 0 -16 -5 -16 -10 0 -7 7 -7 20 0
11 6 25 8 30 5 6 -3 10 -1 10 4 0 6 -6 11 -12 11 -9 0 -8 4 2 10 12 8 11 10
-7 10 -16 0 -21 -4 -17 -15z"/>
<path d="M2365 4610 c-3 -5 -1 -10 4 -10 6 0 11 5 11 10 0 6 -2 10 -4 10 -3 0
-8 -4 -11 -10z"/>
<path d="M2435 4560 c-3 -5 -1 -10 4 -10 6 0 11 5 11 10 0 6 -2 10 -4 10 -3 0
-8 -4 -11 -10z"/>
<path d="M2510 4530 c0 -5 7 -7 15 -4 8 4 15 8 15 10 0 2 -7 4 -15 4 -8 0 -15
-4 -15 -10z"/>
<path d="M2825 4520 c3 -5 10 -10 16 -10 5 0 9 5 9 10 0 6 -7 10 -16 10 -8 0
-12 -4 -9 -10z"/>
<path d="M3060 4171 c0 -5 9 -7 20 -4 11 3 20 7 20 9 0 2 -9 4 -20 4 -11 0
-20 -4 -20 -9z"/>
<path d="M2304 4108 c4 -20 26 -21 26 -1 0 14 -2 15 -9 4 -6 -9 -10 -10 -14
-2 -4 8 -5 8 -3 -1z"/>
<path d="M2237 4043 c-3 -5 3 -20 14 -33 l20 -25 -6 25 c-9 30 -21 45 -28 33z"/>
<path d="M2300 4030 c0 -11 4 -20 9 -20 5 0 7 9 4 20 -3 11 -7 20 -9 20 -2 0
-4 -9 -4 -20z"/>
<path d="M3852 4035 c-11 -13 -10 -15 7 -15 14 0 19 5 15 15 -7 18 -6 18 -22
0z"/>
<path d="M2260 3964 c0 -8 6 -11 15 -8 8 4 15 9 15 13 0 4 -7 8 -15 8 -8 0
-15 -6 -15 -13z"/>
<path d="M2305 3946 c0 -13 3 -22 7 -20 4 2 9 0 13 -6 10 -16 25 -12 25 6 0
15 -26 43 -40 44 -3 0 -5 -11 -5 -24z"/>
<path d="M3815 3920 c-3 -5 -1 -10 4 -10 6 0 11 5 11 10 0 6 -2 10 -4 10 -3 0
-8 -4 -11 -10z"/>
<path d="M2991 3904 c-1 -12 6 -25 15 -28 13 -5 14 -3 7 6 -6 7 -13 20 -16 28
-4 10 -6 8 -6 -6z"/>
<path d="M2415 3820 c3 -5 11 -10 16 -10 6 0 7 5 4 10 -3 6 -11 10 -16 10 -6
0 -7 -4 -4 -10z"/>
<path d="M2826 3783 c-13 -17 -14 -27 -6 -42 14 -27 13 -34 -4 -28 -12 5 -12
2 -1 -21 8 -15 16 -35 19 -44 3 -10 10 -18 15 -18 6 0 8 7 5 15 -5 11 -2 13
12 8 12 -4 15 -3 10 5 -4 7 -2 12 3 12 6 0 11 -5 11 -11 0 -5 5 -7 10 -4 16
10 1 25 -25 25 -26 0 -38 13 -41 47 -3 27 11 30 24 7 6 -10 12 -12 16 -6 3 5
-1 15 -9 22 -8 7 -15 19 -15 26 0 18 37 -18 56 -55 13 -24 14 -25 14 -4 0 12
-5 25 -11 28 -6 4 -8 13 -5 21 3 8 1 14 -4 14 -6 0 -10 6 -10 13 0 21 -46 13
-64 -10z"/>
<path d="M2500 3780 c0 -5 5 -10 10 -10 6 0 10 5 10 10 0 6 -4 10 -10 10 -5 0
-10 -4 -10 -10z"/>
<path d="M2734 3674 c0 -30 3 -54 7 -54 12 0 15 91 4 100 -7 6 -11 -9 -11 -46z"/>
<path d="M2561 3715 c1 -19 18 -51 18 -35 0 8 -4 22 -9 30 -5 8 -9 11 -9 5z"/>
<path d="M2697 3699 c7 -7 15 -10 18 -7 3 3 -2 9 -12 12 -14 6 -15 5 -6 -5z"/>
<path d="M2767 3702 c-4 -5 0 -15 8 -22 8 -7 13 -16 10 -20 -3 -5 -1 -11 5
-15 14 -9 12 15 -4 44 -7 13 -16 19 -19 13z"/>
<path d="M2917 3669 c4 -13 8 -18 11 -10 2 7 -1 18 -6 23 -8 8 -9 4 -5 -13z"/>
<path d="M2675 3610 c-3 -5 -1 -10 4 -10 6 0 11 5 11 10 0 6 -2 10 -4 10 -3 0
-8 -4 -11 -10z"/>
<path d="M2935 3600 c3 -5 8 -10 11 -10 2 0 4 5 4 10 0 6 -5 10 -11 10 -5 0
-7 -4 -4 -10z"/>
<path d="M2698 3569 c-10 -5 -18 -7 -18 -3 0 4 -7 -1 -15 -12 -8 -10 -14 -23
-14 -29 0 -5 5 -3 12 6 7 9 26 23 42 32 17 9 26 16 20 16 -5 0 -18 -4 -27 -10z"/>
<path d="M2776 3571 c-4 -5 3 -7 14 -4 23 6 26 13 6 13 -8 0 -17 -4 -20 -9z"/>
<path d="M2735 3551 c-3 -5 -1 -12 5 -16 5 -3 10 1 10 9 0 18 -6 21 -15 7z"/>
<path d="M2694 3535 c-18 -13 -18 -14 5 -8 18 5 22 3 16 -7 -5 -8 -4 -11 3 -6
6 4 9 13 5 21 -6 18 -5 18 -29 0z"/>
<path d="M2930 3540 c-9 -6 -10 -10 -3 -10 6 0 15 5 18 10 8 12 4 12 -15 0z"/>
<path d="M2870 3100 c0 -5 5 -10 10 -10 6 0 10 5 10 10 0 6 -4 10 -10 10 -5 0
-10 -4 -10 -10z"/>
<path d="M2650 3070 c0 -5 5 -10 11 -10 5 0 7 5 4 10 -3 6 -8 10 -11 10 -2 0
-4 -4 -4 -10z"/>
<path d="M2876 3067 c3 -10 9 -15 12 -12 3 3 0 11 -7 18 -10 9 -11 8 -5 -6z"/>
<path d="M2890 3030 c0 -5 -7 -10 -15 -10 -19 0 -19 -17 -1 -36 20 -20 43 -19
26 1 -6 8 -9 23 -5 35 3 11 4 20 1 20 -3 0 -6 -4 -6 -10z"/>
<path d="M4005 3000 c-3 -5 -1 -10 4 -10 6 0 11 5 11 10 0 6 -2 10 -4 10 -3 0
-8 -4 -11 -10z"/>
<path d="M2905 2940 c3 -5 8 -10 11 -10 2 0 4 5 4 10 0 6 -5 10 -11 10 -5 0
-7 -4 -4 -10z"/>
<path d="M2960 2930 c0 -5 5 -10 11 -10 5 0 7 5 4 10 -3 6 -8 10 -11 10 -2 0
-4 -4 -4 -10z"/>
<path d="M3285 2910 c-3 -5 1 -10 10 -10 9 0 13 5 10 10 -3 6 -8 10 -10 10 -2
0 -7 -4 -10 -10z"/>
<path d="M3832 2875 c-6 -14 -10 -25 -8 -25 2 0 11 11 20 25 9 14 13 25 8 25
-5 0 -14 -11 -20 -25z"/>
<path d="M4091 2874 c0 -11 3 -14 6 -6 3 7 2 16 -1 19 -3 4 -6 -2 -5 -13z"/>
<path d="M2908 2853 c-3 -12 0 -20 8 -20 16 0 17 6 5 25 -6 11 -9 9 -13 -5z"/>
<path d="M3377 2851 c-17 -6 -17 -8 -3 -20 8 -7 23 -11 33 -8 13 3 11 5 -7 6
-20 1 -22 3 -10 11 19 12 10 19 -13 11z"/>
<path d="M2920 2814 c-15 -9 -17 -13 -6 -10 10 4 25 1 32 -5 11 -9 14 -8 14 2
0 11 2 11 10 -1 5 -8 10 -10 10 -4 0 11 -20 34 -29 34 -4 -1 -17 -8 -31 -16z"/>
<path d="M3460 2796 c0 -2 7 -7 16 -10 8 -3 12 -2 9 4 -6 10 -25 14 -25 6z"/>
<path d="M2900 2750 c0 -5 7 -7 15 -4 8 4 15 8 15 10 0 2 -7 4 -15 4 -8 0 -15
-4 -15 -10z"/>
<path d="M3496 2746 c3 -8 13 -17 22 -21 13 -5 13 -2 -3 15 -21 24 -26 25 -19
6z"/>
<path d="M4085 2740 c-3 -5 -2 -17 3 -26 8 -14 10 -12 10 9 0 29 -3 33 -13 17z"/>
<path d="M2926 2731 c-3 -4 1 -17 10 -27 14 -18 15 -18 5 2 -6 12 -7 24 -4 28
3 3 4 6 0 6 -3 0 -8 -4 -11 -9z"/>
<path d="M4050 2696 c0 -10 8 -16 22 -16 12 0 19 1 17 3 -2 1 -12 9 -21 16
-15 12 -18 11 -18 -3z"/>
<path d="M2996 2677 c3 -10 9 -15 12 -12 3 3 0 11 -7 18 -10 9 -11 8 -5 -6z"/>
<path d="M3030 2649 c0 -5 -4 -8 -9 -4 -5 3 -12 1 -16 -5 -3 -5 1 -10 11 -10
13 0 14 -3 4 -15 -9 -10 -9 -15 -1 -15 6 0 10 -5 9 -12 -2 -7 6 -12 17 -13 11
0 19 -6 17 -14 -1 -7 1 -18 6 -25 6 -6 13 -26 17 -43 7 -35 19 -43 29 -18 3 8
2 14 -2 14 -19 -3 -25 2 -13 10 12 8 12 12 2 25 -7 8 -10 20 -6 26 3 5 3 10
-2 10 -13 0 -47 63 -44 83 1 9 -3 17 -8 17 -6 0 -11 -5 -11 -11z"/>
<path d="M2965 2619 c-9 -14 -2 -20 14 -10 8 6 9 11 3 15 -6 3 -14 1 -17 -5z"/>
<path d="M4020 2579 c0 -5 5 -7 10 -4 6 3 10 8 10 11 0 2 -4 4 -10 4 -5 0 -10
-5 -10 -11z"/>
<path d="M3939 2507 c7 -7 14 -8 21 -1 6 6 2 10 -12 11 -16 2 -18 -1 -9 -10z"/>
<path d="M3971 2436 c-19 -23 -22 -56 -5 -49 9 3 13 12 9 21 -3 8 0 21 6 28 6
8 9 14 6 14 -2 0 -10 -6 -16 -14z"/>
<path d="M3993 2384 c0 -18 2 -22 8 -13 11 18 11 39 0 39 -5 0 -8 -12 -8 -26z"/>
<path d="M3970 2340 c-9 -6 -10 -10 -3 -10 6 0 15 5 18 10 8 12 4 12 -15 0z"/>
<path d="M3936 2303 c-10 -10 -7 -43 5 -43 5 0 8 -4 4 -9 -3 -5 -18 -8 -34 -6
-25 3 -27 1 -23 -21 3 -19 7 -22 18 -13 11 9 14 8 14 -5 0 -16 2 -16 15 -2 8
8 15 21 15 30 0 8 5 18 10 21 6 3 10 12 10 18 0 7 -4 6 -11 -3 -9 -12 -10 -11
-6 7 5 23 -5 38 -17 26z"/>
<path d="M3840 2290 c-9 -6 -10 -10 -3 -10 6 0 15 5 18 10 8 12 4 12 -15 0z"/>
<path d="M3895 2290 c-3 -5 -1 -10 4 -10 6 0 11 5 11 10 0 6 -2 10 -4 10 -3 0
-8 -4 -11 -10z"/>
<path d="M3816 2235 c-10 -8 -22 -12 -26 -10 -5 3 -11 -2 -14 -11 -8 -21 32
-9 57 17 21 22 10 25 -17 4z"/>
<path d="M2708 2213 c7 -3 16 -2 19 1 4 3 -2 6 -13 5 -11 0 -14 -3 -6 -6z"/>
<path d="M3854 2193 c5 -14 1 -19 -16 -20 -17 -2 -19 0 -8 7 8 5 11 12 7 17
-11 10 -26 -17 -20 -34 6 -16 60 -9 78 10 7 7 4 8 -7 4 -12 -4 -18 -1 -18 8 0
7 -5 17 -11 21 -7 4 -9 0 -5 -13z"/>
<path d="M2570 2189 c0 -5 5 -7 10 -4 6 3 10 8 10 11 0 2 -4 4 -10 4 -5 0 -10
-5 -10 -11z"/>
<path d="M2740 2190 c0 -5 5 -10 10 -10 6 0 10 5 10 10 0 6 -4 10 -10 10 -5 0
-10 -4 -10 -10z"/>
<path d="M2998 2158 c-9 -23 2 -36 24 -30 17 4 20 2 15 -11 -4 -12 -1 -17 10
-17 12 0 13 -3 3 -15 -7 -8 -16 -12 -21 -9 -5 3 -9 -2 -9 -11 0 -9 5 -13 10
-10 6 4 20 -4 31 -17 l20 -23 -4 28 c-3 19 0 27 11 27 9 0 5 7 -11 21 -15 11
-26 25 -24 31 1 6 -9 15 -23 19 -14 4 -19 7 -12 8 7 1 10 6 7 11 -9 14 -22 13
-27 -2z"/>
<path d="M3487 2113 c-4 -3 -7 -11 -7 -17 0 -6 5 -5 12 2 6 6 9 14 7 17 -3 3
-9 2 -12 -2z"/>
<path d="M2997 2089 c4 -13 8 -18 11 -10 2 7 -1 18 -6 23 -8 8 -9 4 -5 -13z"/>
<path d="M3867 2089 c7 -7 15 -10 18 -7 3 3 -2 9 -12 12 -14 6 -15 5 -6 -5z"/>
<path d="M2702 2070 c7 -11 17 -20 22 -20 5 0 1 9 -9 20 -10 11 -20 20 -22 20
-2 0 2 -9 9 -20z"/>
<path d="M3591 2064 c0 -11 3 -14 6 -6 3 7 2 16 -1 19 -3 4 -6 -2 -5 -13z"/>
<path d="M3835 2070 c-3 -5 -1 -10 4 -10 6 0 11 5 11 10 0 6 -2 10 -4 10 -3 0
-8 -4 -11 -10z"/>
<path d="M3315 2030 c3 -5 8 -10 11 -10 2 0 4 5 4 10 0 6 -5 10 -11 10 -5 0
-7 -4 -4 -10z"/>
<path d="M3485 1959 c-4 -6 -5 -12 -2 -15 2 -3 7 2 10 11 7 17 1 20 -8 4z"/>
<path d="M3625 1960 c3 -5 8 -10 11 -10 2 0 4 5 4 10 0 6 -5 10 -11 10 -5 0
-7 -4 -4 -10z"/>
<path d="M3660 1960 c-13 -8 -12 -10 3 -10 9 0 17 5 17 10 0 12 -1 12 -20 0z"/>
<path d="M3397 1935 c-4 -8 -2 -17 3 -20 6 -4 10 3 10 14 0 25 -6 27 -13 6z"/>
<path d="M3610 1917 c-16 -13 -25 -37 -12 -37 13 1 46 30 33 30 -7 0 -9 5 -6
10 8 13 3 12 -15 -3z"/>
<path d="M3780 1919 c0 -5 5 -7 10 -4 6 3 10 8 10 11 0 2 -4 4 -10 4 -5 0 -10
-5 -10 -11z"/>
<path d="M3556 1885 c4 -8 10 -12 15 -9 11 6 2 24 -11 24 -5 0 -7 -7 -4 -15z"/>
<path d="M3696 1824 c-3 -9 -4 -19 -1 -24 6 -10 45 -1 45 11 0 5 -8 5 -17 2
-12 -5 -15 -2 -10 10 3 9 2 17 -2 17 -5 0 -12 -7 -15 -16z"/>
<path d="M3792 1820 c0 -14 2 -19 5 -12 2 6 2 18 0 25 -3 6 -5 1 -5 -13z"/>
<path d="M3666 1812 c-4 -6 -4 -12 1 -12 4 0 1 -5 -7 -10 -10 -6 -11 -10 -2
-10 6 0 12 -9 12 -20 0 -11 5 -20 10 -20 11 0 12 22 1 60 -5 17 -9 21 -15 12z"/>
<path d="M3553 1785 c0 -8 4 -12 9 -9 5 3 6 10 3 15 -9 13 -12 11 -12 -6z"/>
<path d="M3714 1779 c-8 -13 1 -22 26 -24 25 -2 25 7 0 22 -13 9 -21 9 -26 2z"/>
<path d="M3450 1744 c-8 -20 -8 -30 1 -38 9 -8 10 -7 6 7 -4 11 -1 17 8 17 17
0 20 26 5 35 -6 3 -15 -6 -20 -21z"/>
<path d="M3580 1755 c0 -8 4 -15 10 -15 5 0 7 7 4 15 -4 8 -8 15 -10 15 -2 0
-4 -7 -4 -15z"/>
<path d="M3647 1716 c-7 -19 4 -27 21 -17 10 6 10 10 -1 20 -12 9 -16 8 -20
-3z"/>
<path d="M3455 1680 c-3 -5 1 -10 10 -10 9 0 13 5 10 10 -3 6 -8 10 -10 10 -2
0 -7 -4 -10 -10z"/>
<path d="M3640 1670 c-8 -5 -11 -12 -7 -16 4 -4 13 -2 19 4 15 15 7 24 -12 12z"/>
<path d="M3788 1673 c7 -3 16 -2 19 1 4 3 -2 6 -13 5 -11 0 -14 -3 -6 -6z"/>
<path d="M3540 1649 c0 -11 5 -17 10 -14 6 3 10 13 10 21 0 8 -4 14 -10 14 -5
0 -10 -9 -10 -21z"/>
<path d="M3398 1613 c7 -3 16 -2 19 1 4 3 -2 6 -13 5 -11 0 -14 -3 -6 -6z"/>
<path d="M3373 1415 c-17 -19 -16 -22 7 -28 11 -3 18 -1 15 3 -3 5 0 10 7 12
6 2 8 10 4 16 -9 15 -18 15 -33 -3z"/>
<path d="M3072 1100 c0 -14 2 -19 5 -12 2 6 2 18 0 25 -3 6 -5 1 -5 -13z"/>
<path d="M3090 1110 c0 -5 7 -7 15 -4 8 4 15 8 15 10 0 2 -7 4 -15 4 -8 0 -15
-4 -15 -10z"/>
<path d="M2750 1100 c0 -5 5 -10 10 -10 6 0 10 5 10 10 0 6 -4 10 -10 10 -5 0
-10 -4 -10 -10z"/>
<path d="M2606 1052 c-3 -6 -1 -14 5 -17 15 -10 25 3 12 16 -7 7 -13 7 -17 1z"/>
<path d="M2660 1049 c0 -5 5 -7 10 -4 6 3 10 8 10 11 0 2 -4 4 -10 4 -5 0 -10
-5 -10 -11z"/>
<path d="M3285 1020 c3 -5 8 -10 11 -10 2 0 4 5 4 10 0 6 -5 10 -11 10 -5 0
-7 -4 -4 -10z"/>
<path d="M2748 1003 c7 -3 16 -2 19 1 4 3 -2 6 -13 5 -11 0 -14 -3 -6 -6z"/>
<path d="M2651 981 c-8 -5 -11 -16 -8 -25 3 -8 1 -18 -5 -22 -7 -5 -8 -2 -3 6
5 8 3 11 -6 8 -8 -3 -15 -13 -17 -24 -2 -11 0 -15 5 -9 4 6 19 12 33 13 32 5
38 11 21 22 -8 4 -11 15 -8 24 7 18 7 19 -12 7z"/>
<path d="M3226 944 c-8 -22 -7 -34 3 -34 12 0 21 39 11 45 -4 3 -11 -2 -14
-11z"/>
<path d="M2791 933 c-1 -17 16 -25 25 -12 4 7 3 9 -4 5 -5 -3 -13 0 -15 6 -4
9 -6 10 -6 1z"/>
<path d="M2861 923 c7 -12 15 -20 18 -17 3 2 -3 12 -13 22 -17 16 -18 16 -5
-5z"/>
<path d="M3140 919 c0 -5 5 -7 10 -4 6 3 10 8 10 11 0 2 -4 4 -10 4 -5 0 -10
-5 -10 -11z"/>
<path d="M2914 898 c-4 -7 -3 -8 4 -4 8 5 12 -1 12 -14 0 -12 4 -19 9 -16 11
7 2 46 -10 46 -4 0 -11 -5 -15 -12z"/>
<path d="M3430 5570 c8 -5 20 -10 25 -10 6 0 3 5 -5 10 -8 5 -19 10 -25 10 -5
0 -3 -5 5 -10z"/>
<path d="M4354 5051 c6 -10 66 -33 66 -26 0 5 -56 35 -65 35 -3 0 -4 -4 -1 -9z"/>
<path d="M971 4377 c-13 -21 -12 -21 5 -5 10 10 16 20 13 22 -3 3 -11 -5 -18
-17z"/>
<path d="M880 4220 c-12 -7 -12 -12 -3 -21 10 -10 14 -9 19 5 8 22 2 27 -16
16z"/>
<path d="M771 3864 c0 -11 3 -14 6 -6 3 7 2 16 -1 19 -3 4 -6 -2 -5 -13z"/>
<path d="M4931 2446 c-7 -9 -15 -35 -18 -58 -4 -40 -3 -42 11 -24 16 20 32 83
24 92 -3 2 -11 -2 -17 -10z"/>
<path d="M4880 2359 c0 -11 4 -18 10 -14 5 3 7 12 3 20 -7 21 -13 19 -13 -6z"/>
<path d="M1390 1376 c0 -2 8 -10 18 -17 15 -13 16 -12 3 4 -13 16 -21 21 -21
13z"/>
<path d="M3681 316 c-7 -8 -9 -21 -5 -27 5 -8 2 -10 -8 -6 -16 6 -20 -17 -5
-28 4 -3 5 -2 3 1 -3 3 7 17 21 30 18 17 23 28 16 35 -7 7 -14 5 -22 -5z"/>
<path d="M3788 247 c-24 -9 -40 -37 -22 -37 12 0 64 34 64 42 0 10 -7 9 -42
-5z"/>
<path d="M3739 210 c0 -3 -2 -13 -4 -23 -2 -9 0 -15 5 -12 5 3 10 -1 13 -7 2
-7 6 -11 9 -8 3 3 -1 16 -9 30 -7 14 -13 23 -14 20z"/>
<path d="M3653 184 c-16 -16 -16 -25 -2 -21 6 1 14 -4 16 -10 3 -7 0 -13 -6
-13 -6 0 -11 -4 -11 -10 0 -5 7 -10 16 -10 8 0 13 4 9 9 -3 5 5 17 17 27 16
11 18 15 5 10 -12 -4 -20 1 -25 13 -6 16 -9 17 -19 5z"/>
<path d="M3395 49 c-4 -6 -13 -8 -21 -5 -8 3 -11 0 -7 -10 7 -19 16 -18 31 6
7 11 10 20 8 20 -3 0 -8 -5 -11 -11z"/>
</g>
</svg>
