<?xml version="1.0" standalone="no"?>
<!DOCTYPE svg PUBLIC "-//W3C//DTD SVG 20010904//EN"
 "http://www.w3.org/TR/2001/REC-SVG-20010904/DTD/svg10.dtd">
<svg version="1.0" xmlns="http://www.w3.org/2000/svg"
 width="438.000000pt" height="569.000000pt" viewBox="0 0 438.000000 569.000000"
 preserveAspectRatio="xMidYMid meet">

<g transform="translate(0.000000,569.000000) scale(0.100000,-0.100000)"
fill="#000000" stroke="none">
<path d="M1976 5683 c-4 -4 -22 -8 -39 -9 -121 -4 -208 -24 -282 -65 -27 -15
-72 -35 -100 -45 -27 -9 -61 -25 -74 -35 -13 -11 -30 -19 -38 -19 -7 0 -35
-15 -62 -32 -62 -43 -131 -85 -199 -124 -29 -17 -64 -42 -75 -57 -12 -14 -37
-33 -54 -41 -18 -9 -40 -28 -49 -41 -9 -14 -20 -25 -25 -25 -5 0 -17 -8 -27
-17 -10 -10 -35 -31 -54 -48 -115 -98 -138 -120 -143 -144 -3 -15 -16 -38 -29
-52 -13 -14 -25 -30 -27 -36 -2 -7 -26 -35 -52 -63 -33 -34 -44 -50 -32 -50
25 0 8 -18 -38 -42 -23 -11 -54 -30 -69 -42 -14 -11 -45 -32 -67 -45 -65 -39
-39 -36 33 4 l66 36 0 -26 c0 -29 -56 -111 -82 -120 -9 -3 -19 -19 -23 -35 -7
-32 -29 -55 -44 -46 -5 4 -19 -7 -31 -24 -23 -33 -17 -39 18 -14 34 24 48 6
19 -25 -13 -14 -30 -42 -37 -61 -7 -19 -18 -42 -24 -50 -22 -29 -56 -98 -56
-113 0 -8 -4 -17 -9 -19 -14 -5 -25 -88 -12 -88 6 0 11 -5 11 -11 0 -6 -7 -9
-14 -6 -11 5 -17 -5 -21 -38 -4 -24 -4 -48 0 -54 3 -6 1 -11 -4 -11 -13 0 -14
-51 -1 -105 12 -53 14 -195 5 -330 -4 -60 -11 -184 -15 -275 -7 -163 -19 -236
-44 -275 -14 -21 -31 -208 -29 -310 1 -33 2 -96 3 -140 2 -102 31 -211 72
-269 17 -26 35 -46 40 -46 4 0 8 -8 8 -17 0 -47 50 -156 117 -256 18 -27 39
-71 48 -99 31 -105 91 -198 188 -290 58 -56 100 -88 114 -88 12 0 27 -9 33
-20 6 -11 22 -31 36 -46 20 -19 24 -28 15 -37 -18 -18 -13 -35 18 -53 31 -18
65 -79 106 -188 18 -48 27 -106 39 -257 9 -107 23 -261 31 -344 38 -380 45
-478 34 -492 -10 -11 106 -13 684 -13 507 0 696 3 699 11 2 6 15 12 28 13 22
1 25 5 23 39 -1 26 3 37 12 37 9 0 12 6 9 15 -4 10 0 15 13 15 11 0 28 9 38
20 10 11 24 20 32 20 10 0 10 -6 -4 -28 -15 -23 -15 -25 -1 -14 13 10 17 10
21 0 3 -8 6 -6 6 5 1 10 5 16 10 12 5 -3 12 -2 15 3 3 5 23 7 45 5 28 -2 39 1
37 10 -1 6 -1 9 1 5 13 -22 22 -3 17 31 -6 37 -5 39 16 34 30 -8 36 -30 14
-55 -18 -20 -18 -21 -1 -15 11 4 16 3 12 -4 -4 -6 -13 -8 -21 -5 -10 4 -13 -3
-10 -27 2 -19 9 -32 17 -32 8 0 17 -9 20 -20 4 -15 14 -20 36 -20 17 0 29 -3
27 -7 -3 -5 -7 -17 -9 -28 -3 -14 2 -20 16 -20 21 0 25 10 8 27 -8 8 -8 16 0
30 10 17 10 17 11 -2 0 -17 2 -17 10 -5 8 13 10 12 10 -3 0 -10 4 -15 10 -12
6 3 10 -1 10 -9 0 -10 -6 -13 -15 -10 -8 4 -15 1 -15 -5 0 -6 6 -11 13 -11 24
0 57 12 57 21 0 5 -7 5 -17 2 -11 -4 -14 -3 -9 5 4 7 2 12 -3 12 -6 0 -11 9
-11 20 0 11 -3 19 -7 19 -36 -6 -53 2 -51 24 2 12 7 28 11 35 5 7 5 12 0 11
-22 -4 -53 2 -53 10 0 6 16 7 35 4 23 -4 35 -2 35 6 0 6 5 11 11 11 5 0 7 -5
3 -12 -4 -7 -3 -8 4 -4 9 5 9 12 0 26 -7 10 -15 17 -18 15 -4 -2 -7 2 -7 10 0
8 4 12 9 9 4 -3 8 3 8 14 0 10 10 27 23 38 22 20 23 20 42 0 11 -10 15 -16 8
-12 -6 3 -14 2 -18 -4 -4 -6 -10 -8 -15 -5 -11 7 -7 -29 5 -37 6 -4 2 -8 -7
-8 -22 0 -23 -7 -3 -26 13 -13 15 -11 21 13 10 47 14 54 24 48 17 -11 11 16
-11 43 -16 20 -17 28 -7 30 7 1 29 24 48 51 19 26 55 63 79 82 23 19 48 39 55
45 20 19 63 25 63 9 0 -8 -9 -17 -19 -21 -10 -3 -18 -11 -18 -17 0 -8 -3 -8
-9 1 -7 11 -9 10 -14 -3 -4 -9 -3 -14 2 -11 5 3 14 -1 21 -9 9 -10 9 -15 1
-15 -6 0 -11 -5 -11 -11 0 -6 6 -9 13 -6 6 2 12 12 12 22 0 10 6 20 12 22 9 3
12 -5 9 -26 -2 -17 1 -28 5 -25 5 3 9 0 9 -5 0 -6 -4 -11 -10 -11 -5 0 -10 -4
-10 -10 0 -5 9 -10 20 -10 11 0 20 -7 20 -16 0 -8 4 -13 10 -9 5 3 7 12 3 20
-3 10 2 15 17 15 14 0 19 -4 13 -12 -4 -7 -8 -22 -8 -33 0 -31 -14 -45 -41
-45 -20 0 -25 -4 -22 -22 4 -28 28 -36 28 -10 0 13 11 25 30 34 17 7 33 22 36
33 3 14 14 21 32 22 15 1 21 -1 15 -3 -9 -4 -8 -12 5 -32 9 -14 11 -23 5 -19
-8 5 -13 3 -13 -3 0 -7 -6 -10 -13 -7 -6 2 -20 -6 -30 -19 -17 -23 -17 -23 0
-18 11 3 6 -5 -12 -20 -19 -16 -29 -33 -27 -46 4 -22 -23 -29 -31 -7 -3 7 -20
-4 -46 -30 -23 -24 -51 -43 -62 -43 -16 0 -19 -4 -14 -22 4 -15 3 -19 -3 -10
-12 17 -42 4 -42 -18 0 -16 4 -17 32 -9 22 6 34 6 36 -1 2 -5 8 -10 13 -10 6
0 6 7 0 19 -6 10 -8 21 -5 24 9 9 44 -5 37 -16 -3 -6 -1 -7 6 -3 14 9 81 16
81 9 0 -3 -11 -14 -26 -25 -32 -25 -23 -36 11 -14 26 17 34 10 13 -14 -11 -12
-10 -12 5 -1 9 7 17 10 17 6 0 -5 9 0 21 11 12 10 35 19 51 20 26 0 28 -1 14
-11 -34 -25 -15 -33 89 -34 l104 -2 8 28 c4 15 7 66 7 113 0 69 -4 93 -23 129
-21 40 -25 74 -42 295 -10 138 -18 329 -19 424 0 193 1 197 80 296 21 27 41
60 45 73 3 13 25 49 50 81 24 31 57 92 73 134 37 95 63 133 110 157 49 25 87
68 102 114 6 21 22 48 35 61 39 39 72 117 99 232 14 60 31 129 37 154 7 25 12
54 13 65 1 26 42 82 52 72 4 -4 2 -13 -4 -19 -7 -7 -12 -18 -12 -25 0 -21 28
-15 35 7 3 11 15 20 26 20 21 0 21 0 21 92 0 73 12 98 22 45 3 -19 13 -42 21
-53 14 -18 14 -17 15 12 0 25 -22 120 -47 198 -5 15 -2 17 16 11 26 -8 27 7 2
43 -30 43 -59 93 -85 146 -22 43 -23 51 -10 61 12 8 13 16 5 38 -8 21 -7 28 7
36 17 10 10 26 -11 26 -7 0 -13 9 -15 20 -3 16 -1 17 7 5 13 -18 12 -21 14 98
1 76 10 102 23 67 5 -12 8 -13 20 0 11 10 12 19 4 37 -8 17 -7 38 2 78 16 66
15 265 -1 365 -7 39 -15 88 -18 110 -3 22 -10 45 -15 52 -5 7 -8 25 -7 41 2
16 -3 40 -12 53 -21 34 -62 140 -78 204 -5 17 -22 59 -39 95 -17 36 -40 102
-52 148 -11 46 -30 100 -40 120 -11 20 -20 43 -20 51 0 15 -26 110 -40 146 -4
11 -13 35 -20 52 -7 18 -23 44 -36 58 -13 15 -22 31 -19 36 3 5 -1 6 -9 3 -13
-5 -13 -10 -5 -27 10 -20 10 -21 -5 -6 -17 15 -13 49 5 49 5 0 2 11 -7 25 -9
14 -19 23 -22 21 -3 -3 1 -12 8 -21 7 -8 9 -15 4 -15 -9 0 -36 25 -110 103
-20 20 -42 37 -49 37 -7 0 -15 7 -19 15 -3 8 -11 15 -18 15 -7 1 -31 9 -53 20
-22 11 -50 19 -62 20 -12 0 -26 6 -30 14 -4 7 -26 16 -48 20 -29 5 -36 4 -25
-3 12 -8 7 -11 -18 -11 -26 0 -35 5 -39 20 -5 18 -14 20 -74 20 -37 0 -80 -5
-93 -12 -23 -10 -29 -8 -51 18 -14 16 -32 49 -41 74 -32 89 -36 99 -43 98 -15
-3 -58 22 -81 47 -14 15 -38 34 -55 42 -29 15 -29 15 -15 -2 14 -17 14 -18
-10 -5 -14 7 -36 22 -50 35 -14 12 -52 30 -85 39 -33 10 -116 36 -185 58 -90
29 -153 42 -225 48 -116 10 -313 36 -336 45 -8 3 -19 2 -23 -2z m475 -548 c10
-3 20 -2 24 4 10 17 25 13 26 -6 0 -15 2 -15 9 2 5 11 9 14 9 7 1 -9 7 -10 19
-4 9 4 26 7 37 5 27 -4 76 -12 100 -17 11 -3 23 -5 28 -5 4 -1 7 -8 7 -17 0
-13 7 -15 34 -11 19 3 39 0 45 -6 9 -9 14 -9 20 1 4 8 15 10 26 6 13 -5 16 -4
11 4 -11 18 0 14 15 -5 10 -11 10 -14 2 -9 -24 14 -13 -2 11 -18 23 -15 25
-15 21 4 -2 13 1 17 10 14 8 -3 11 -12 8 -20 -3 -9 2 -14 14 -14 28 0 35 -11
20 -29 -10 -14 -10 -14 4 -4 9 7 19 9 23 5 4 -4 13 -7 19 -7 7 0 12 -7 12 -15
0 -8 11 -17 24 -18 19 -3 21 -6 10 -13 -11 -7 -11 -9 4 -9 9 0 17 -4 17 -9 0
-5 10 -6 23 -3 21 5 21 5 5 -12 -24 -24 -23 -28 15 -53 33 -23 63 -31 53 -14
-8 13 18 21 35 11 10 -7 5 -13 -20 -23 -25 -11 -29 -16 -17 -20 17 -7 22 -37
6 -37 -5 0 -10 -5 -10 -12 0 -6 8 -4 19 6 16 15 19 15 31 1 7 -9 9 -15 3 -13
-12 3 -13 0 -13 -33 0 -11 4 -17 11 -14 5 4 21 -5 35 -20 20 -22 23 -30 12
-36 -10 -7 -9 -9 4 -9 9 0 19 6 21 13 3 6 6 2 6 -11 1 -13 -3 -21 -8 -17 -5 3
-12 1 -16 -5 -3 -5 -1 -10 5 -10 6 0 9 -4 5 -10 -3 -5 7 -16 22 -25 15 -9 20
-14 11 -11 -9 2 -19 -1 -22 -9 -3 -9 0 -12 8 -9 21 8 28 -37 10 -65 -9 -13
-11 -20 -5 -17 6 4 11 3 11 -3 0 -5 -4 -13 -10 -16 -5 -3 -10 -13 -10 -21 0
-9 5 -12 11 -8 9 5 10 -3 5 -29 -4 -21 -2 -38 4 -42 5 -3 10 -11 10 -16 0 -6
-4 -7 -10 -4 -15 10 -33 -5 -22 -18 5 -7 13 -23 17 -36 5 -17 4 -22 -5 -16 -9
6 -11 -2 -8 -28 3 -26 0 -38 -11 -42 -12 -5 -13 -8 -2 -14 7 -5 13 -12 13 -17
0 -5 2 -13 4 -19 1 -5 5 -26 8 -45 3 -19 9 -52 12 -72 4 -20 15 -46 25 -57 10
-11 16 -27 13 -35 -7 -19 -24 -21 -24 -3 0 8 -4 7 -10 -3 -8 -12 -10 -10 -11
10 0 14 -3 19 -6 13 -2 -7 -9 -13 -14 -13 -6 0 -7 5 -4 10 3 6 2 10 -4 10 -6
0 -15 -9 -21 -19 -8 -16 -6 -21 8 -25 24 -8 24 -34 1 -41 -17 -6 -33 -65 -16
-62 6 1 14 -13 19 -30 5 -18 12 -33 17 -33 5 0 11 -6 14 -14 8 -21 -19 -13
-41 12 -22 25 -63 33 -43 8 9 -11 8 -15 -5 -20 -18 -7 -37 1 -29 14 3 4 -5 11
-18 15 -21 8 -21 8 5 12 14 2 29 11 32 19 3 9 2 12 -5 9 -5 -4 -17 -1 -25 6
-12 10 -13 9 -8 -6 5 -11 -9 -5 -40 19 -41 31 -54 35 -99 34 -29 0 -46 -3 -39
-5 6 -3 10 -9 6 -14 -8 -14 -44 -11 -44 4 0 6 -5 4 -11 -5 -6 -10 -22 -18 -37
-18 -22 0 -24 2 -12 11 12 9 11 10 -7 6 -13 -3 -23 -1 -23 4 0 5 -5 9 -11 9
-5 0 -7 -5 -3 -12 7 -10 -27 -8 -86 7 -8 2 -17 4 -20 4 -3 1 1 5 9 10 10 7
-88 7 -109 1 -3 -1 -19 -1 -37 0 -17 1 -45 -6 -62 -15 -17 -8 -31 -11 -31 -6
0 6 -11 -1 -25 -14 -13 -14 -29 -25 -35 -25 -6 0 -9 -4 -6 -9 8 -13 -4 -42
-15 -35 -5 3 -9 13 -9 23 0 10 -7 25 -17 32 -15 13 -15 12 -4 -9 7 -13 10 -31
8 -40 -4 -13 -5 -12 -6 4 -1 24 -27 40 -35 21 -2 -7 -5 4 -6 23 -1 34 -2 34
-12 10 -6 -14 -10 -36 -9 -49 3 -24 3 -24 -24 5 -20 22 -25 24 -20 9 4 -11 10
-31 13 -45 3 -14 11 -29 19 -33 13 -8 12 -34 -3 -71 -6 -16 -4 -17 14 -7 19
10 21 9 19 -16 -1 -18 3 -27 11 -26 15 4 16 -24 0 -29 -6 -2 -12 -11 -14 -19
-8 -46 -11 -56 -22 -76 -7 -13 -11 -23 -8 -23 2 0 -6 -19 -18 -42 -28 -54 -36
-175 -12 -184 8 -3 18 -19 21 -36 4 -16 13 -32 20 -35 8 -2 11 -11 8 -19 -3
-9 1 -14 12 -14 9 0 13 -5 10 -10 -4 -6 -11 -7 -17 -4 -7 4 -8 2 -4 -4 4 -6
13 -9 22 -5 8 3 14 1 12 -4 -6 -17 88 -100 108 -96 10 2 25 5 32 5 6 1 12 7
12 15 0 15 16 17 25 3 4 -6 10 -8 14 -6 14 9 99 -29 120 -53 20 -22 22 -23 45
-7 24 15 26 15 41 -11 9 -16 14 -20 11 -11 -6 21 12 28 42 17 15 -6 21 -13 16
-21 -4 -7 -4 -10 1 -6 4 4 15 2 23 -5 10 -8 13 -8 9 -1 -10 17 20 25 33 9 9
-11 16 -12 30 -3 14 9 25 9 45 0 14 -7 24 -16 21 -20 -2 -4 4 -8 14 -8 10 0
17 3 14 7 -2 4 4 13 13 20 9 8 14 9 10 3 -4 -7 0 -14 7 -17 10 -4 14 0 11 13
-3 17 1 19 41 15 33 -4 44 -1 44 9 0 20 24 37 56 39 15 1 29 8 32 16 3 8 0 11
-6 7 -6 -3 -13 -2 -17 4 -3 5 -1 10 5 10 6 0 9 4 5 9 -3 6 6 8 20 5 20 -4 25
0 25 16 0 13 -4 18 -11 15 -6 -4 -5 2 3 14 15 24 43 29 34 6 -7 -19 10 -20 21
-1 5 8 19 19 33 25 18 7 20 10 8 10 -10 1 -18 6 -18 11 0 12 10 13 29 1 8 -5
11 -16 8 -24 -3 -9 1 -17 13 -20 14 -3 17 -11 13 -27 -5 -17 -2 -21 13 -18 11
2 20 -3 20 -12 1 -8 2 -21 3 -28 0 -7 5 -11 9 -8 4 2 14 -5 21 -16 12 -19 11
-20 -16 -15 -15 4 -22 4 -15 1 6 -3 10 -9 7 -14 -3 -5 2 -16 11 -24 8 -9 11
-16 5 -16 -6 0 -11 -5 -11 -11 0 -5 5 -7 10 -4 6 3 17 0 25 -9 11 -11 12 -16
2 -19 -9 -4 -9 -8 0 -14 6 -4 13 -17 15 -28 2 -16 -2 -19 -20 -18 -19 3 -21 0
-12 -16 5 -11 10 -30 10 -43 0 -13 6 -30 13 -37 7 -8 7 -11 1 -8 -7 4 -14 -2
-17 -13 -3 -10 -2 -20 2 -22 12 -4 22 -68 12 -68 -5 0 -11 4 -13 10 -2 6 -8 6
-18 0 -13 -9 -13 -11 0 -20 12 -7 10 -14 -15 -40 -16 -16 -23 -30 -17 -30 7 0
17 9 24 20 7 11 15 20 18 20 10 0 5 -65 -5 -72 -16 -12 -25 -9 -19 7 4 8 2 15
-4 15 -17 0 -22 -28 -7 -40 13 -11 13 -15 0 -33 -17 -24 -20 -41 -6 -33 5 3
11 -5 13 -19 3 -13 2 -22 -2 -20 -4 3 -10 -5 -13 -17 -5 -17 -9 -19 -20 -10
-10 9 -18 8 -33 -2 -10 -8 -15 -18 -11 -23 5 -4 15 1 23 11 13 19 14 19 14 -6
0 -17 -7 -27 -20 -31 -11 -3 -20 -12 -20 -21 0 -19 16 -21 23 -3 3 6 5 0 4
-16 -1 -15 -5 -27 -9 -27 -4 0 -8 -10 -8 -21 0 -19 2 -20 17 -8 15 13 16 12
10 -9 -4 -18 -2 -22 9 -18 11 4 12 2 2 -14 -7 -10 -15 -17 -18 -15 -3 2 -7 -5
-7 -16 -1 -10 2 -19 7 -19 5 0 7 -7 3 -16 -3 -8 -12 -13 -19 -10 -11 4 -11 0
2 -19 14 -22 14 -24 -8 -36 -30 -16 -40 -32 -26 -40 9 -6 8 -12 -1 -23 -18
-21 -35 -20 -27 0 5 13 4 14 -7 6 -8 -7 -17 -8 -21 -4 -4 4 -6 0 -4 -8 2 -8
-4 -16 -12 -16 -32 -3 -35 -5 -21 -13 9 -6 21 -5 32 2 10 6 22 7 26 3 4 -5 2
-11 -5 -13 -7 -3 -17 -16 -22 -29 -6 -14 -15 -22 -23 -18 -10 3 -14 -2 -13
-18 0 -13 -3 -23 -9 -23 -5 0 -8 10 -7 23 3 22 -12 30 -23 12 -3 -6 -1 -10 5
-10 7 0 10 -7 6 -15 -9 -23 4 -44 22 -38 14 5 15 3 5 -8 -7 -7 -13 -21 -13
-31 0 -10 -4 -18 -10 -18 -5 0 -10 -15 -10 -34 0 -21 -6 -36 -15 -40 -19 -7
-20 -36 -2 -36 8 0 19 11 25 25 8 16 17 23 27 19 23 -9 14 -37 -13 -44 -13 -3
-23 -9 -23 -15 1 -19 -10 -45 -20 -45 -5 0 -9 -6 -9 -14 0 -8 -4 -17 -9 -20
-5 -4 -7 3 -4 15 5 19 4 20 -15 10 -20 -11 -21 -10 -16 21 4 24 3 29 -4 19 -9
-13 -13 -13 -28 0 -15 12 -15 10 2 -16 16 -26 16 -28 2 -16 -16 12 -19 8 -30
-33 -7 -25 -16 -46 -21 -46 -4 0 -6 -3 -4 -7 3 -5 2 -16 -2 -26 -6 -17 -8 -17
-34 3 -23 18 -27 19 -27 5 0 -9 -4 -14 -9 -11 -14 9 -21 -20 -8 -33 8 -8 8
-14 -1 -23 -10 -10 -15 -10 -21 1 -7 11 -13 10 -35 -4 -31 -21 -32 -17 -6 30
11 20 16 34 10 30 -5 -3 -10 3 -10 14 0 16 -6 21 -24 21 -13 0 -27 -6 -29 -12
-3 -7 -6 -3 -6 9 -1 13 2 22 7 20 7 -2 12 6 12 23 0 5 -7 7 -15 4 -11 -5 -13
-2 -9 10 7 18 4 19 -20 10 -9 -3 -13 -10 -10 -15 3 -5 -2 -9 -10 -9 -9 0 -15
3 -15 8 4 26 -3 41 -21 39 -11 -1 -20 -5 -20 -10 0 -5 -6 -4 -13 2 -8 6 -17 8
-20 4 -4 -3 -18 -7 -32 -8 -18 0 -24 4 -20 13 3 7 5 21 6 30 0 10 3 12 5 5 6
-15 44 15 44 34 0 7 7 13 15 13 19 0 19 10 -2 39 -9 14 -12 22 -7 19 5 -3 15
0 22 8 11 12 10 15 -2 20 -9 3 -16 13 -16 21 0 12 3 13 13 4 8 -6 17 -8 20 -4
4 3 7 1 7 -5 0 -7 4 -12 8 -12 5 0 7 14 4 30 -4 31 -17 39 -25 18 -7 -17 -29
12 -22 29 2 6 -2 17 -10 23 -8 6 -12 17 -9 24 6 17 -22 41 -31 26 -3 -5 1 -10
10 -10 9 0 13 -5 10 -11 -5 -7 -13 -5 -25 6 -10 9 -23 14 -28 11 -5 -3 -15 0
-21 8 -9 10 -9 15 -1 18 15 5 3 35 -16 42 -12 4 -14 0 -10 -17 3 -12 3 -16 0
-9 -7 15 -34 16 -34 2 0 -6 -6 -5 -14 2 -8 7 -12 16 -10 19 2 4 -4 13 -13 20
-14 12 -16 12 -8 -1 8 -13 7 -13 -8 -1 -18 14 -22 7 -18 -27 1 -6 -3 -12 -8
-12 -15 0 -23 18 -11 25 5 3 10 15 10 26 0 12 4 17 11 13 7 -4 10 -1 7 6 -9
27 -26 20 -33 -12 -10 -47 -15 -52 -30 -31 -7 10 -11 21 -9 25 3 5 -4 8 -15 8
-12 0 -21 5 -21 10 0 6 -6 10 -14 10 -10 0 -12 -7 -8 -22 4 -18 2 -20 -14 -14
-10 4 -31 10 -46 13 -16 3 -28 9 -28 13 0 4 -11 11 -25 14 -14 4 -24 10 -23
14 1 4 -2 65 -6 136 -8 122 -9 127 -22 96 -9 -21 -11 -44 -6 -64 4 -17 5 -64
2 -104 -5 -78 -17 -96 -58 -85 -24 6 -51 -18 -52 -45 0 -19 26 -43 50 -45 29
-2 24 -24 -10 -42 -19 -10 -27 -20 -24 -30 4 -8 2 -15 -4 -15 -6 0 -13 6 -15
13 -3 7 -6 5 -6 -5 -1 -11 6 -18 17 -19 13 0 13 -2 -4 -9 -12 -5 -25 -13 -29
-19 -9 -16 -25 -3 -18 14 3 10 1 13 -8 10 -10 -4 -14 4 -16 22 0 16 -4 40 -8
56 -6 24 -4 27 16 28 17 1 19 3 7 6 -10 2 -23 22 -29 44 -12 37 -21 45 -71 54
-12 3 -25 10 -26 15 -3 7 -13 5 -28 -5 -13 -8 -24 -11 -24 -6 0 6 -6 8 -14 5
-21 -8 -48 38 -42 71 5 28 40 65 62 65 7 0 20 7 28 16 9 8 24 14 34 12 9 -2
23 3 29 12 11 13 14 13 23 0 6 -9 10 -10 10 -3 0 6 -4 15 -10 18 -5 3 -10 11
-10 16 0 12 32 8 43 -6 6 -6 10 -6 14 3 2 6 11 12 19 12 8 0 14 6 14 13 0 7
17 21 37 32 41 23 63 42 63 56 0 6 -6 9 -12 8 -7 -1 -26 -1 -43 0 -26 1 -28 3
-12 12 10 6 27 9 37 6 10 -2 24 -1 31 4 11 7 10 9 -3 9 -12 0 -15 5 -11 17 5
14 11 11 35 -17 15 -19 33 -35 40 -37 21 -5 61 -12 101 -18 47 -8 48 -30 2
-49 -19 -8 -35 -18 -35 -21 0 -3 5 -3 12 1 7 5 9 2 5 -8 -12 -33 75 -25 105 9
18 22 43 101 35 109 -4 4 -15 -4 -25 -16 -20 -25 -48 -19 -38 7 12 30 -63 137
-113 160 -14 7 -38 12 -53 13 -32 0 -98 -29 -98 -44 0 -6 -5 -4 -10 4 -9 13
-11 13 -20 0 -6 -9 -10 -10 -10 -3 0 6 7 18 15 27 8 8 11 17 6 20 -5 4 -12 0
-14 -6 -4 -10 -8 -9 -16 2 -6 8 -11 11 -11 6 0 -5 -9 -1 -20 9 -11 10 -20 14
-20 9 0 -5 -5 -1 -11 9 -12 20 -39 23 -40 5 0 -10 -2 -10 -5 -1 -3 7 -12 9
-21 6 -11 -4 -14 -2 -9 5 4 6 2 21 -4 32 -9 17 -8 19 7 14 17 -5 17 -5 0 6
-14 9 -17 19 -11 43 3 18 11 37 16 44 5 7 7 17 3 24 -4 6 4 21 20 35 16 13 23
24 18 24 -17 0 -23 41 -7 47 20 7 18 39 -3 48 -16 6 -16 8 6 26 18 14 19 19 7
19 -9 0 -16 5 -16 10 0 6 4 10 9 10 17 0 22 34 8 45 -9 6 -16 31 -17 60 -4 87
-3 94 23 88 26 -7 18 5 -15 21 -27 14 -26 49 0 80 10 11 12 16 6 13 -7 -4 -14
0 -18 8 -3 8 -1 15 5 15 6 0 8 4 5 9 -4 5 0 12 6 14 9 4 8 6 -2 6 -11 1 -15
12 -14 45 1 24 4 49 8 55 4 6 2 11 -4 11 -11 0 -35 49 -31 65 8 31 9 45 3 41
-4 -2 -15 2 -25 9 -14 10 -15 14 -4 18 8 3 17 15 20 28 4 16 3 19 -6 10 -18
-18 -40 -13 -34 9 3 10 0 21 -6 23 -5 1 -10 17 -9 35 0 19 -4 32 -11 32 -7 0
-18 9 -25 21 -7 12 -16 19 -19 16 -3 -3 -20 3 -39 14 -19 10 -41 19 -50 19 -8
0 -13 4 -10 9 3 4 -1 16 -8 27 -11 14 -24 18 -56 15 -37 -2 -42 0 -38 16 3 10
-4 27 -15 38 -11 11 -17 14 -13 8 4 -7 2 -13 -3 -13 -10 0 -15 14 -12 33 0 4
-4 7 -10 7 -5 0 -7 5 -4 10 3 6 2 10 -2 10 -5 0 -14 14 -20 31 -10 26 -10 30
3 25 8 -3 14 1 14 10 0 9 -5 12 -12 8 -10 -6 -10 -4 0 7 15 17 16 30 0 26 -7
-1 -14 8 -16 21 -2 12 2 22 8 22 7 0 10 7 6 15 -3 8 -1 15 5 15 6 0 7 5 4 10
-4 7 -14 6 -28 -1 -22 -10 -22 -10 -2 6 11 8 25 23 32 31 10 14 13 10 23 -25
11 -41 33 -54 44 -26 8 22 -4 47 -20 41 -8 -3 -14 1 -14 8 0 17 27 29 32 14 3
-8 9 -8 24 0 12 7 14 12 5 12 -11 0 -11 3 -2 14 7 8 11 27 8 43 -4 27 -4 27
-6 -4 0 -17 -7 -35 -13 -40 -24 -14 -38 -11 -38 8 0 11 5 17 10 14 12 -7 12
-3 4 19 -3 9 -11 16 -18 16 -6 0 -11 12 -10 27 1 23 7 30 37 38 27 8 34 14 28
24 -5 8 -8 24 -6 38 2 18 0 21 -11 12 -8 -6 -14 -8 -14 -3 0 5 -5 2 -10 -6 -6
-9 -10 -10 -10 -3 0 6 9 18 20 26 18 12 18 15 5 20 -8 4 -15 2 -15 -3 0 -6 -4
-10 -9 -10 -10 0 -26 37 -30 71 0 5 -6 7 -12 3 -8 -5 -8 -9 1 -14 8 -5 7 -9
-4 -13 -14 -6 -18 -1 -15 19 0 4 -5 11 -13 15 -11 7 -10 11 2 18 10 7 17 6 22
-2 4 -7 8 -7 8 -2 -1 6 -7 19 -16 30 -13 17 -16 18 -24 5 -5 -8 -10 -20 -10
-27 0 -6 -6 -14 -12 -16 -10 -4 -10 -7 -1 -14 8 -6 9 -14 3 -23 -6 -8 -10 -12
-10 -7 0 17 -2 23 -12 35 -7 8 -7 12 1 12 15 0 14 40 -1 41 -10 0 -10 2 0 6 6
2 12 11 12 19 0 8 -6 11 -15 8 -8 -4 -15 -15 -15 -27 0 -11 -2 -18 -5 -15 -7
7 6 87 14 86 21 -2 22 5 2 26 -14 15 -19 26 -12 31 19 11 12 22 -14 20 -27 -3
-33 7 -12 22 17 13 49 25 44 15 -3 -4 0 -16 4 -27 7 -15 8 -11 5 17 -3 25 0
38 10 42 8 3 14 13 14 22 0 10 -5 14 -15 10 -8 -3 -15 -1 -15 4 0 6 4 10 8 10
5 0 9 7 10 15 1 8 3 22 4 30 1 8 8 17 15 19 8 3 11 1 8 -4 -3 -6 -2 -10 4 -10
17 0 18 25 2 36 -13 10 -11 12 9 10 21 -1 25 3 24 24 -1 18 5 26 17 28 11 1
27 3 38 4 12 1 17 8 14 18 -3 10 1 9 11 -4 16 -20 21 -12 17 23 -2 7 2 10 8 6
6 -3 11 -2 11 4 0 5 8 10 18 10 9 0 37 4 62 9 25 5 90 9 145 7 61 -1 103 2
107 8 4 7 11 7 22 -2 9 -8 21 -9 33 -4 10 5 28 8 41 7 12 0 22 3 22 8 0 5 8 8
17 6 12 -2 19 5 23 22 4 22 32 43 29 23 -4 -23 3 -31 21 -26 11 3 20 12 20 19
0 8 5 14 10 14 6 0 10 -6 10 -12 0 -10 2 -10 8 -1 10 15 45 10 50 -7 3 -8 0
-10 -8 -5 -9 6 -11 4 -5 -5 6 -10 12 -8 24 7 9 12 22 22 30 25 18 5 61 2 82
-7z m549 -99 c0 -3 -4 -8 -10 -11 -5 -3 -10 -1 -10 4 0 6 5 11 10 11 6 0 10
-2 10 -4z m143 -143 c-7 -2 -19 -2 -25 0 -7 3 -2 5 12 5 14 0 19 -2 13 -5z
m727 -81 c0 -13 -3 -12 -15 4 -19 25 -19 40 0 24 8 -7 15 -20 15 -28z m-610
-43 c0 -4 -7 -12 -15 -19 -12 -10 -18 -10 -30 0 -14 12 -14 15 0 30 14 16 14
18 0 24 -9 3 -13 11 -10 16 6 10 55 -36 55 -51z m4 -45 c4 -10 1 -14 -6 -12
-15 5 -23 28 -10 28 5 0 13 -7 16 -16z m-1837 -89 c0 -8 -6 -15 -13 -15 -8 0
-11 6 -8 15 4 8 9 15 13 15 4 0 8 -7 8 -15z m69 -180 l25 -25 -25 -10 c-15 -5
-26 -12 -26 -14 0 -3 7 -3 15 0 10 4 13 2 10 -8 -3 -7 -14 -14 -25 -14 -16 0
-19 5 -13 31 3 16 5 38 5 48 -1 23 4 22 34 -8z m-51 -45 c3 -5 1 -10 -4 -10
-6 0 -11 5 -11 10 0 6 2 10 4 10 3 0 8 -4 11 -10z m95 -44 c0 -3 -4 -8 -10
-11 -5 -3 -10 -1 -10 4 0 6 5 11 10 11 6 0 10 -2 10 -4z m43 -83 c2 -10 8 -26
12 -35 5 -14 2 -18 -13 -18 -22 0 -37 26 -21 36 6 3 8 12 5 20 -3 8 -2 14 3
14 5 0 11 -8 14 -17z m-36 -21 c0 -10 -7 -24 -14 -31 -16 -15 -16 -9 -1 24 13
30 17 31 15 7z m-1250 -94 c-3 -8 -6 -5 -6 6 -1 11 2 17 5 13 3 -3 4 -12 1
-19z m3028 -17 c3 -5 2 -12 -3 -15 -5 -3 -9 1 -9 9 0 17 3 19 12 6z m10 -71
c3 -5 2 -10 -4 -10 -5 0 -13 5 -16 10 -3 6 -2 10 4 10 5 0 13 -4 16 -10z
m-3083 -82 c-7 -7 -12 -8 -12 -2 0 14 12 26 19 19 2 -3 -1 -11 -7 -17z m1258
-13 c0 -8 -4 -15 -10 -15 -5 0 -7 7 -4 15 4 8 8 15 10 15 2 0 4 -7 4 -15z
m1863 -65 c3 -11 1 -20 -4 -20 -5 0 -9 4 -9 9 0 5 -3 17 -7 27 -4 11 -3 15 4
11 6 -4 13 -16 16 -27z m-1833 10 c0 -5 -2 -10 -4 -10 -3 0 -8 5 -11 10 -3 6
-1 10 4 10 6 0 11 -4 11 -10z m1780 -10 c0 -5 -8 -10 -17 -10 -15 0 -16 2 -3
10 19 12 20 12 20 0z m-1740 -31 c0 -18 -2 -19 -15 -9 -8 7 -15 16 -15 21 0 5
7 9 15 9 9 0 15 -9 15 -21z m878 -140 c-6 -16 -12 -28 -14 -26 -5 5 13 57 20
57 3 0 0 -14 -6 -31z m-605 -19 c3 -11 1 -20 -4 -20 -5 0 -9 4 -9 9 0 5 -3 17
-7 27 -4 11 -3 15 4 11 6 -4 13 -16 16 -27z m567 -85 c0 -8 -4 -15 -10 -15 -5
0 -7 7 -4 15 4 8 8 15 10 15 2 0 4 -7 4 -15z m744 9 c23 -9 20 -23 -4 -21 -11
1 -20 7 -20 14 0 15 2 15 24 7z m1006 -64 c6 -23 8 -50 4 -62 -4 -12 -2 -18 4
-14 6 3 10 -11 10 -34 0 -22 -3 -40 -9 -40 -5 0 -10 6 -11 13 0 6 -3 23 -5 37
-16 119 -18 140 -11 140 4 0 12 -18 18 -40z m-919 16 c13 2 18 1 11 -2 -10 -4
-10 -9 -2 -19 9 -11 2 -10 -29 2 -23 9 -41 20 -41 25 0 5 8 4 18 -1 10 -6 30
-8 43 -5z m42 -53 c-7 -2 -19 -2 -25 0 -7 3 -2 5 12 5 14 0 19 -2 13 -5z
m-371 -29 c11 -6 -16 -9 -88 -10 -87 -1 -101 1 -87 12 21 14 148 14 175 -2z
m383 -21 c-2 -10 -4 -19 -4 -21 -1 -2 -6 0 -11 3 -8 5 -7 11 1 21 15 18 18 18
14 -3z m-468 -15 c6 15 45 15 103 -2 75 -21 100 -36 98 -62 -1 -12 -6 -20 -10
-18 -5 3 -6 9 -3 14 3 5 1 11 -5 15 -5 3 -10 1 -10 -5 0 -6 -9 -4 -23 5 -13 8
-51 16 -88 17 -61 3 -88 16 -89 43 0 6 5 3 11 -5 8 -11 12 -12 16 -2z m512
-24 c-36 -20 -52 -18 -38 4 8 13 20 17 37 14 l25 -5 -24 -13z m-1843 -45 c3
-5 0 -9 -6 -9 -6 0 -8 -5 -4 -12 4 -7 3 -8 -4 -4 -7 4 -16 15 -22 26 -8 15 -7
17 10 13 11 -3 23 -9 26 -14z m1424 -15 c0 -7 6 -15 13 -17 6 -3 -5 -6 -25 -6
-40 -1 -41 0 -33 21 7 17 45 18 45 2z m412 10 c11 -10 -4 -44 -19 -44 -12 0
-11 3 3 17 15 16 15 17 -2 24 -15 6 -15 8 -3 8 9 1 18 -2 21 -5z m-1852 -49
c6 -8 18 -11 26 -8 8 3 14 0 14 -5 0 -6 -8 -9 -17 -7 -53 10 -73 19 -73 30 0
16 35 9 50 -10z m1884 14 c-3 -5 2 -22 11 -39 19 -37 -2 -38 -22 -1 -17 31
-16 48 2 48 8 0 12 -4 9 -8z m-1961 -6 c-7 -2 -19 -2 -25 0 -7 3 -2 5 12 5 14
0 19 -2 13 -5z m131 -2 c3 -4 -6 -6 -19 -3 -14 2 -25 6 -25 8 0 8 39 4 44 -5z
m65 -37 c-6 -8 -15 -12 -18 -8 -3 4 0 9 7 11 6 3 9 10 6 15 -4 7 -2 8 5 4 9
-6 9 -11 0 -22z m760 -44 c6 0 10 -3 10 -7 -3 -19 2 -25 14 -16 8 7 22 6 41
-2 l29 -12 -31 -11 c-24 -8 -29 -15 -25 -31 3 -11 10 -18 15 -15 5 3 15 -2 23
-12 7 -11 17 -19 22 -20 18 -2 42 -16 47 -29 3 -9 -1 -12 -15 -10 -11 2 -17 0
-14 -6 4 -5 2 -9 -3 -9 -19 0 -22 -33 -5 -52 17 -19 17 -19 -9 -7 -15 6 -25
15 -23 19 7 11 -25 51 -36 45 -5 -3 -6 1 -3 9 4 10 -5 20 -25 31 -17 8 -31 20
-31 25 0 6 -6 10 -14 10 -8 0 -18 5 -22 12 -4 7 -3 8 4 4 14 -8 12 61 -2 83
-13 20 16 35 30 16 6 -8 16 -15 23 -15z m-678 -3 c-10 -9 -11 -8 -5 6 3 10 9
15 12 12 3 -3 0 -11 -7 -18z m1189 -8 c0 -5 -7 -9 -15 -9 -9 0 -15 9 -15 21 0
18 2 19 15 9 8 -7 15 -16 15 -21z m-1420 -10 c0 -5 -7 -9 -15 -9 -9 0 -15 9
-15 21 0 18 2 19 15 9 8 -7 15 -16 15 -21z m1895 21 c3 -5 2 -10 -4 -10 -5 0
-13 5 -16 10 -3 6 -2 10 4 10 5 0 13 -4 16 -10z m-1753 -57 c56 -52 61 -77 16
-80 -13 -2 -43 -9 -67 -18 -24 -8 -53 -15 -64 -15 -19 0 -19 1 -5 13 26 20 58
80 58 109 0 23 3 26 19 20 11 -4 30 -17 43 -29z m138 27 c0 -13 -11 -13 -30 0
-12 8 -11 10 8 10 12 0 22 -4 22 -10z m1612 -12 c-7 -7 -12 -8 -12 -2 0 6 3
14 7 17 3 4 9 5 12 2 2 -3 -1 -11 -7 -17z m-1048 4 c3 -5 -1 -9 -9 -9 -8 0
-15 4 -15 9 0 4 4 8 9 8 6 0 12 -4 15 -8z m372 -59 c-3 -7 7 -19 24 -28 17 -9
30 -20 30 -25 0 -14 72 -30 124 -28 39 1 55 8 90 39 29 26 47 35 56 29 8 -5
18 -6 22 -4 4 3 8 0 8 -5 0 -6 -4 -11 -10 -11 -14 0 -12 -27 3 -33 6 -3 0 -6
-14 -6 -15 -1 -32 -8 -39 -16 -7 -8 -18 -14 -24 -13 -6 1 -22 -4 -35 -11 -18
-10 -22 -10 -16 0 6 9 2 10 -16 5 -13 -4 -30 -7 -36 -7 -7 1 -26 2 -43 3 -16
1 -32 8 -35 17 -5 13 -7 14 -15 1 -8 -12 -15 -9 -40 18 -16 18 -30 28 -30 23
0 -6 -4 -11 -10 -11 -5 0 -9 3 -7 8 1 4 -8 17 -21 30 l-22 22 22 31 c22 29 22
29 31 8 4 -13 5 -29 3 -36z m-152 18 c3 -5 -3 -11 -14 -14 -20 -5 -26 3 -13
16 9 10 21 9 27 -2z m6 -25 c0 -3 -4 -8 -10 -11 -5 -3 -10 -1 -10 4 0 6 5 11
10 11 6 0 10 -2 10 -4z m20 -56 c0 -5 -2 -10 -4 -10 -3 0 -8 5 -11 10 -3 6 -1
10 4 10 6 0 11 -4 11 -10z m40 -10 c0 -5 -7 -7 -15 -4 -8 4 -15 8 -15 10 0 2
7 4 15 4 8 0 15 -4 15 -10z m-997 -20 c-3 -11 -9 -17 -14 -15 -4 3 -13 -3 -19
-12 -11 -17 -11 -17 -6 0 3 10 6 25 6 33 0 8 9 14 19 14 14 0 18 -5 14 -20z
m947 -30 c0 -5 -4 -10 -10 -10 -5 0 -10 5 -10 10 0 6 5 10 10 10 6 0 10 -4 10
-10z m107 -52 c-3 -8 -6 -5 -6 6 -1 11 2 17 5 13 3 -3 4 -12 1 -19z m274 -71
c-1 -12 -15 -9 -19 4 -3 6 1 10 8 8 6 -3 11 -8 11 -12z m599 3 c0 -5 -8 -6
-17 -3 -17 7 -17 6 0 -20 15 -24 16 -27 2 -27 -9 0 -13 4 -10 10 3 5 -3 15
-15 22 -28 18 -25 25 10 26 17 0 30 -3 30 -8z m60 -80 c0 -5 -2 -10 -4 -10 -3
0 -8 5 -11 10 -3 6 -1 10 4 10 6 0 11 -4 11 -10z m-76 -78 c2 -4 1 -14 -3 -21
-6 -9 -10 -7 -14 8 -5 20 7 29 17 13z m-4 -213 c0 -11 -4 -17 -10 -14 -5 3
-10 13 -10 21 0 8 5 14 10 14 6 0 10 -9 10 -21z m-3233 -91 c-3 -8 -6 -5 -6 6
-1 11 2 17 5 13 3 -3 4 -12 1 -19z m3572 -19 c6 -42 0 -143 -9 -154 -5 -5 -11
-36 -14 -68 -5 -54 -22 -87 -45 -87 -5 0 -17 -10 -25 -22 -9 -12 -23 -23 -31
-24 -13 -2 -15 8 -10 69 7 83 30 189 48 220 12 21 19 31 45 61 6 8 12 20 12
26 0 22 25 3 29 -21z m-351 -4 c-3 -3 -9 2 -12 12 -6 14 -5 15 5 6 7 -7 10
-15 7 -18z m719 -7 c-3 -7 -5 -2 -5 12 0 14 2 19 5 13 2 -7 2 -19 0 -25z
m-332 -67 c3 -5 1 -12 -5 -16 -5 -3 -10 1 -10 9 0 18 6 21 15 7z m-385 -25 c0
-3 -4 -8 -10 -11 -5 -3 -10 -1 -10 4 0 6 5 11 10 11 6 0 10 -2 10 -4z m-26
-91 c-9 -14 -18 -25 -21 -25 -5 0 5 18 20 38 17 22 18 13 1 -13z m400 -57 c11
-11 11 -17 -2 -36 -26 -40 -7 -40 71 0 48 24 83 -33 48 -80 -13 -19 -30 -28
-53 -29 -18 -1 -47 -5 -64 -9 -19 -3 -34 -1 -38 5 -5 7 -1 8 10 4 12 -4 15 -3
10 5 -10 16 -29 15 -52 -4 -10 -8 -14 -13 -7 -10 6 4 25 -8 42 -25 28 -28 36
-30 76 -26 25 4 47 2 51 -4 8 -14 -5 -79 -15 -79 -5 0 -24 -14 -42 -30 -17
-17 -38 -29 -45 -26 -6 2 -15 2 -19 -2 -10 -11 -55 -9 -55 1 0 5 -9 17 -20 27
-10 9 -24 30 -31 46 -14 37 -20 114 -9 114 5 0 21 11 36 25 21 19 29 22 36 13
5 -9 8 -7 8 7 0 11 9 26 19 32 16 10 18 18 11 47 -10 46 5 61 34 34z m201 -18
c0 -14 -7 -24 -17 -26 -13 -1 -18 5 -18 20 0 13 3 26 7 30 13 12 28 -1 28 -24z
m-55 -110 c0 -5 -5 -10 -11 -10 -5 0 -7 5 -4 10 3 6 8 10 11 10 2 0 4 -4 4
-10z m40 -15 c0 -8 -4 -15 -8 -15 -5 0 -9 7 -9 15 0 8 4 15 9 15 4 0 8 -7 8
-15z m-37 -69 c4 -10 1 -13 -8 -9 -8 3 -12 9 -9 14 7 12 11 11 17 -5z m-2058
-17 c-4 -12 -2 -24 4 -28 8 -5 6 -14 -7 -29 -27 -31 -33 -18 -15 34 15 43 31
64 18 23z m2055 -14 c0 -2 -9 -9 -20 -15 -18 -9 -20 -8 -20 15 0 23 2 24 20
15 11 -6 20 -13 20 -15z m-1459 -42 c11 -15 11 -16 -1 -5 -17 15 -30 16 -30 2
0 -6 10 -15 23 -20 12 -5 16 -9 9 -9 -7 -1 -22 4 -33 10 -16 8 -18 13 -8 25
15 18 24 18 40 -3z m-551 -10 c0 -7 -4 -13 -9 -13 -5 0 -11 6 -14 13 -3 8 1
14 9 14 8 0 14 -6 14 -14z m1295 -89 c-7 -12 -11 -31 -9 -42 3 -11 1 -23 -5
-26 -6 -4 -9 -1 -5 7 3 8 -2 22 -11 30 -14 15 -14 20 7 60 23 44 23 44 30 19
5 -17 2 -34 -7 -48z m-971 3 c0 -31 5 -59 14 -69 8 -9 11 -22 7 -27 -3 -6 1
-11 9 -11 9 0 16 -9 16 -21 0 -11 4 -29 10 -39 14 -26 2 -53 -21 -47 -10 3
-20 0 -21 -5 -6 -16 -56 12 -61 34 -3 11 -10 17 -16 13 -21 -12 -11 14 11 29
13 10 17 16 9 16 -11 0 -10 4 2 18 10 10 14 22 10 26 -4 3 -7 26 -7 50 -1 35
2 42 14 38 13 -5 13 -3 1 11 -15 19 -8 49 11 42 8 -3 13 -24 12 -58z m-359 43
c3 -5 1 -10 -4 -10 -6 0 -11 5 -11 10 0 6 2 10 4 10 3 0 8 -4 11 -10z m719
-22 c-3 -5 -12 -4 -20 3 -19 16 -18 18 6 12 11 -3 17 -9 14 -15z m-300 -15 c3
-8 2 -21 -2 -29 -6 -11 -11 -6 -19 20 -9 27 -8 33 2 29 8 -2 16 -11 19 -20z
m-273 -103 c5 0 9 -8 9 -19 0 -10 7 -24 15 -31 17 -14 15 -61 -5 -84 -16 -21
-60 -21 -60 -1 0 12 -4 13 -19 5 -11 -5 -36 -10 -56 -10 -29 0 -36 3 -31 16 3
8 2 12 -4 9 -6 -3 -11 0 -12 7 0 7 -2 20 -3 28 -1 8 2 23 7 32 7 14 5 16 -7
12 -11 -5 -13 -2 -9 10 3 9 10 13 15 10 13 -8 11 10 -3 24 -9 9 -9 12 0 12 7
0 12 -5 12 -10 0 -6 11 -8 27 -4 26 7 27 7 10 -10 -23 -23 -22 -29 3 -16 11 6
20 7 19 3 -1 -4 -1 -14 0 -22 1 -12 4 -12 19 1 22 19 49 29 55 20 2 -4 2 0 -1
8 -3 8 -4 24 -4 35 1 19 0 19 -12 3 -7 -10 -16 -18 -20 -18 -4 0 -6 8 -4 18 2
10 -2 16 -10 14 -8 -1 -11 2 -7 8 5 8 11 8 20 0 11 -9 17 -7 27 10 12 19 13
18 16 -20 2 -22 7 -40 13 -40z m1761 38 c-7 -7 -12 -8 -12 -2 0 14 12 26 19
19 2 -3 -1 -11 -7 -17z m-2028 -34 c-1 -41 -14 -84 -26 -84 -5 0 -6 5 -3 10 3
6 1 10 -5 10 -7 0 -9 8 -5 20 3 11 2 20 -2 20 -5 0 -7 15 -5 34 4 31 7 34 25
27 16 -6 22 -16 21 -37z m151 37 c3 -5 2 -12 -3 -15 -5 -3 -9 1 -9 9 0 17 3
19 12 6z m1266 -35 c14 8 11 -16 -4 -31 -8 -7 -19 -10 -26 -5 -11 6 -11 12 0
31 7 15 14 19 17 11 2 -6 8 -10 13 -6z m64 -34 c3 -8 -2 -12 -13 -10 -9 2 -16
-3 -14 -9 1 -7 -4 -13 -12 -13 -8 0 -12 8 -9 23 5 25 39 32 48 9z m-70 -92 c3
-6 -1 -7 -9 -4 -18 7 -21 14 -7 14 6 0 13 -4 16 -10z m105 -4 c0 -3 -4 -8 -10
-11 -5 -3 -10 -1 -10 4 0 6 5 11 10 11 6 0 10 -2 10 -4z m-706 -55 c3 -4 18
-6 32 -3 18 3 25 1 20 -6 -11 -19 18 -19 38 0 35 32 42 25 27 -30 -6 -20 -6
-32 0 -32 5 0 8 -12 7 -27 -2 -21 3 -30 20 -38 22 -10 31 -35 11 -35 -5 0 -7
-4 -4 -10 3 -5 0 -10 -7 -11 -9 0 -10 -2 -1 -5 7 -3 21 0 32 6 14 7 21 7 21 0
0 -5 -4 -10 -9 -10 -5 0 -7 -10 -4 -22 5 -22 5 -22 -9 -4 -13 17 -15 17 -21 3
-4 -10 0 -20 10 -25 14 -8 14 -12 -2 -36 -17 -25 -16 -28 14 -30 8 -1 16 -7
18 -13 4 -10 -3 -10 -27 -2 -19 7 -29 16 -26 25 3 7 -3 15 -12 17 -12 3 -9 5
7 6 18 1 22 5 16 19 -6 15 -11 32 -14 52 -1 3 -6 -2 -11 -10 -6 -10 -10 -11
-10 -2 0 6 -5 12 -11 12 -5 0 -7 -4 -4 -10 13 -20 -14 -9 -29 12 -9 12 -16 17
-16 10 0 -17 32 -52 49 -52 11 0 11 -3 -2 -18 -20 -22 -23 -47 -4 -36 9 6 9 4
-1 -8 -7 -9 -12 -20 -11 -24 4 -22 -2 -33 -16 -28 -14 6 -20 -7 -16 -30 1 -5
-5 -3 -14 4 -8 7 -18 10 -22 6 -3 -3 -2 -6 3 -6 6 0 16 -16 23 -36 11 -30 15
-33 28 -22 10 8 11 14 4 16 -16 5 -13 20 9 44 11 12 20 18 20 14 0 -5 7 -3 15
4 21 18 28 7 20 -30 -5 -21 -16 -35 -33 -43 -36 -15 -35 -14 -27 -26 3 -6 12
-8 18 -4 6 4 22 8 35 9 22 3 23 1 9 -19 -11 -17 -12 -26 -3 -40 9 -14 7 -21
-12 -35 -19 -15 -22 -24 -17 -48 l7 -29 -17 23 c-9 13 -23 21 -30 18 -8 -3
-16 0 -19 7 -2 7 -5 5 -5 -5 -1 -9 4 -20 9 -23 6 -3 10 -1 10 4 0 6 5 11 11
11 8 0 8 -4 0 -14 -8 -10 -9 -16 -1 -21 5 -3 10 -12 10 -18 0 -7 -4 -6 -10 3
-8 12 -10 12 -16 -3 -3 -9 -17 -17 -30 -17 -27 0 -32 -17 -9 -26 27 -11 4 -25
-34 -20 -36 4 -38 3 -33 -22 3 -15 1 -23 -5 -19 -21 13 -21 46 0 68 18 19 19
22 3 16 -10 -4 -22 -7 -27 -7 -6 0 -7 -4 -4 -10 3 -5 0 -7 -8 -4 -10 4 -14 -2
-14 -21 0 -25 -22 -61 -24 -39 0 5 -2 19 -3 32 -2 12 2 22 8 23 6 0 2 4 -9 9
-16 7 -17 9 -3 9 24 1 33 21 9 21 -15 0 -23 -11 -32 -42 -16 -54 -13 -52 -39
-38 -12 7 -20 8 -17 2 4 -5 -1 -18 -9 -28 -15 -18 -15 -18 -11 4 6 26 7 26
-29 7 -19 -9 -32 -11 -38 -5 -15 15 -29 12 -22 -5 3 -8 0 -15 -7 -16 -7 0 -32
-3 -55 -5 -31 -4 -42 -2 -37 6 4 6 2 17 -5 25 -8 10 -7 16 8 27 31 22 31 33 2
35 -16 1 -27 -3 -27 -10 1 -44 -5 -50 -18 -17 -7 19 -14 29 -14 21 -1 -9 -9
-11 -27 -7 -19 5 -24 4 -18 -6 4 -7 -5 -2 -19 11 -15 14 -27 20 -27 15 0 -5
-4 -4 -8 1 -20 28 -42 37 -57 25 -16 -13 -21 -35 -6 -26 5 3 11 -3 14 -15 5
-17 3 -18 -10 -7 -14 11 -15 10 -9 -10 6 -16 3 -22 -8 -22 -9 0 -17 5 -17 10
-1 6 -3 15 -4 20 -1 6 -3 14 -4 18 0 5 -7 9 -15 9 -8 0 -12 -6 -9 -14 3 -7 0
-13 -7 -13 -7 0 -10 -7 -6 -17 4 -12 0 -10 -10 5 -9 12 -23 22 -30 22 -8 0
-14 9 -14 21 0 11 4 18 9 15 5 -3 12 1 15 10 9 24 7 44 -4 44 -5 0 -10 -7 -10
-15 0 -8 -5 -15 -10 -15 -6 0 -8 11 -4 25 5 19 3 25 -7 23 -9 -2 -13 8 -14 30
0 17 4 32 9 32 5 0 3 7 -4 15 -7 8 -10 16 -6 16 3 1 10 2 16 3 5 0 18 8 28 17
20 17 59 29 105 32 15 1 27 8 27 14 0 15 26 17 35 3 3 -5 1 -10 -5 -10 -7 0
-9 -7 -6 -16 4 -9 1 -23 -6 -32 -11 -13 -10 -14 2 -10 8 3 15 15 14 27 -1 17
4 21 18 18 16 -5 17 -3 7 9 -9 11 -8 14 2 15 8 0 23 3 34 6 55 13 76 14 90 3
11 -9 15 -10 15 -1 0 8 5 7 15 -3 14 -13 45 -13 45 1 0 3 -6 3 -14 0 -12 -5
-32 20 -24 28 7 7 54 9 65 2 7 -5 9 0 6 15 l-5 23 17 -23 c9 -12 21 -19 27
-16 6 4 15 0 20 -7 8 -11 9 -10 4 3 -3 11 2 19 16 24 23 7 45 -16 25 -28 -20
-12 -1 -19 24 -9 13 5 18 10 10 10 -10 1 -12 9 -8 30 6 29 6 30 -39 27 -30 -2
-44 0 -41 8 2 6 17 11 33 11 32 0 54 23 34 35 -9 5 -9 9 -1 14 6 4 11 2 11 -5
0 -7 8 -2 19 9 22 27 29 27 55 5 16 -14 18 -14 8 -2 -6 9 -9 19 -5 23 4 4 1
11 -7 17 -13 8 -13 11 2 22 12 9 14 18 7 30 -7 12 -6 17 2 17 8 0 7 5 -2 17
-12 15 -12 16 4 10 24 -9 44 2 26 14 -11 6 -11 12 0 32 7 14 11 30 7 35 -3 6
-2 13 4 17 5 3 10 15 10 26 0 14 7 19 29 19 17 0 32 -4 35 -9z m479 -28 c-3
-8 0 -19 7 -23 8 -5 4 -8 -14 -7 -17 1 -24 7 -21 15 3 7 0 10 -5 7 -6 -3 -10
0 -10 7 0 7 11 14 24 14 18 1 23 -2 19 -13z m159 -13 c-6 -15 -11 -19 -16 -12
-4 7 -1 18 6 26 17 19 20 14 10 -14z m-872 10 c0 -5 -2 -10 -4 -10 -3 0 -8 5
-11 10 -3 6 -1 10 4 10 6 0 11 -4 11 -10z m374 -20 c-6 -6 -10 -2 -11 12 -2
16 1 18 10 9 7 -7 8 -14 1 -21z m43 -2 c-3 -8 -6 -5 -6 6 -1 11 2 17 5 13 3
-3 4 -12 1 -19z m853 12 c0 -5 -4 -10 -10 -10 -5 0 -10 5 -10 10 0 6 5 10 10
10 6 0 10 -4 10 -10z m-1650 -25 c0 -8 -7 -15 -15 -15 -16 0 -20 12 -8 23 11
12 23 8 23 -8z m279 -8 c-13 -11 -25 -24 -25 -31 -1 -6 -2 -15 -3 -20 -1 -10
-30 24 -31 36 0 15 29 34 55 34 l27 0 -23 -19z m-329 -11 c0 -19 -4 -23 -20
-19 -32 8 -23 38 13 42 4 1 7 -10 7 -23z m189 -26 c0 -11 -2 -10 -10 4 -9 15
-13 16 -20 5 -7 -11 -9 -9 -9 7 0 11 3 24 7 27 8 9 32 -23 32 -43z m55 25 c9
-13 16 -28 16 -32 0 -4 -5 -1 -10 7 -9 13 -11 13 -20 0 -9 -13 -11 -13 -20 0
-11 18 -13 34 -3 43 11 12 20 8 37 -18z m606 -15 c13 -9 13 -10 0 -11 -8 0
-22 -2 -31 -4 -9 -1 -16 4 -16 11 0 16 25 18 47 4z m260 1 c0 -6 -4 -13 -10
-16 -5 -3 -10 1 -10 9 0 9 5 16 10 16 6 0 10 -4 10 -9z m-1020 -44 c0 -5 -4
-5 -10 -2 -5 3 -10 14 -10 23 0 15 2 15 10 2 5 -8 10 -19 10 -23z m780 2 c0
-6 -4 -7 -10 -4 -5 3 -10 11 -10 16 0 6 5 7 10 4 6 -3 10 -11 10 -16z m5 -89
c3 -5 1 -10 -4 -10 -6 0 -11 5 -11 10 0 6 2 10 4 10 3 0 8 -4 11 -10z m-25
-60 c0 -5 -5 -10 -11 -10 -5 0 -7 5 -4 10 3 6 8 10 11 10 2 0 4 -4 4 -10z m5
-108 c-3 -3 -11 0 -18 7 -9 10 -8 11 6 5 10 -3 15 -9 12 -12z m-2 -102 c-5
-19 -23 -29 -23 -12 0 7 20 32 26 32 1 0 0 -9 -3 -20z m-978 -140 c-3 -5 -1
-10 4 -10 6 0 11 -7 11 -15 0 -8 -5 -15 -11 -15 -5 0 -8 4 -4 9 3 5 1 12 -5
16 -10 6 -5 25 6 25 3 0 2 -4 -1 -10z m198 -55 c-7 -21 -13 -19 -13 6 0 11 4
18 10 14 5 -3 7 -12 3 -20z m434 -66 c-9 -6 -15 -14 -12 -19 3 -4 -3 -7 -12
-5 -10 2 -21 4 -25 4 -4 1 -5 8 -2 16 4 10 13 13 24 10 10 -3 21 -1 25 5 4 6
10 8 13 5 4 -4 -1 -11 -11 -16z m-87 -9 c0 -5 -5 -10 -11 -10 -5 0 -7 5 -4 10
3 6 8 10 11 10 2 0 4 -4 4 -10z m-450 -10 c0 -5 -2 -10 -4 -10 -3 0 -8 5 -11
10 -3 6 -1 10 4 10 6 0 11 -4 11 -10z m567 -20 c0 -19 -4 -27 -10 -21 -5 5 -6
18 -2 30 9 29 12 26 12 -9z m-99 -25 c-3 -3 -9 2 -12 12 -6 14 -5 15 5 6 7 -7
10 -15 7 -18z m-41 -10 c0 -8 -4 -12 -9 -9 -5 3 -6 10 -3 15 9 13 12 11 12 -6z
m813 -183 c0 -5 -7 -9 -15 -9 -8 0 -12 4 -9 9 3 4 9 8 15 8 5 0 9 -4 9 -8z
m38 -122 c-1 -16 -6 -30 -10 -30 -5 0 -7 14 -6 30 1 17 6 30 10 30 5 0 7 -13
6 -30z m19 -22 c-3 -8 -6 -5 -6 6 -1 11 2 17 5 13 3 -3 4 -12 1 -19z m73 -7
c-5 -11 -15 -23 -22 -27 -7 -5 -8 -2 -3 7 21 37 44 55 25 20z m-770 -201 c0
-5 -8 -10 -17 -10 -15 0 -16 2 -3 10 19 12 20 12 20 0z m282 -77 c-3 -17 -7
-22 -10 -13 -3 8 -9 21 -15 28 -7 9 -4 12 10 12 17 0 19 -5 15 -27z m438 3 c0
-3 -4 -8 -10 -11 -5 -3 -10 -1 -10 4 0 6 5 11 10 11 6 0 10 -2 10 -4z m-66
-21 c-6 -16 -24 -21 -24 -7 0 11 11 22 21 22 5 0 6 -7 3 -15z"/>
<path d="M2673 5088 c0 -13 1 -17 4 -10 3 6 10 9 16 5 7 -4 6 1 -2 10 -17 21
-17 21 -18 -5z"/>
<path d="M2810 5062 c0 -7 -7 -9 -17 -5 -11 4 -14 3 -9 -6 5 -7 15 -10 24 -6
8 3 19 0 24 -7 5 -8 8 -9 8 -2 0 6 -7 17 -15 24 -10 8 -15 9 -15 2z"/>
<path d="M1820 5042 c0 -7 -10 -12 -23 -12 -13 0 -32 -7 -43 -16 -19 -15 -19
-16 1 -8 11 3 29 7 40 8 21 1 41 23 31 33 -3 4 -6 1 -6 -5z"/>
<path d="M2910 5004 c0 -2 9 -8 20 -14 11 -6 20 -7 20 -2 0 6 -9 12 -20 15
-11 3 -20 3 -20 1z"/>
<path d="M1597 4969 c-17 -10 -15 -29 4 -29 6 0 7 5 4 10 -3 6 3 10 15 10 12
0 18 5 15 10 -8 12 -15 12 -38 -1z"/>
<path d="M1838 4952 c-10 -2 -18 -8 -18 -13 0 -12 17 -12 25 1 3 5 12 7 20 3
8 -3 15 -3 15 0 0 8 -24 14 -42 9z"/>
<path d="M3005 4930 c3 -5 8 -10 11 -10 2 0 4 5 4 10 0 6 -5 10 -11 10 -5 0
-7 -4 -4 -10z"/>
<path d="M1582 4907 c-23 -24 -30 -57 -12 -57 10 0 14 15 11 34 -1 5 6 17 15
27 25 27 12 23 -14 -4z"/>
<path d="M1620 4920 c0 -5 5 -10 11 -10 5 0 7 5 4 10 -3 6 -8 10 -11 10 -2 0
-4 -4 -4 -10z"/>
<path d="M3046 4904 c-7 -18 11 -47 24 -39 5 3 11 -1 14 -7 3 -7 5 -4 3 7 -1
11 -9 20 -17 20 -9 0 -14 8 -12 18 4 22 -4 22 -12 1z"/>
<path d="M1855 4900 c4 -6 11 -8 16 -5 14 9 11 15 -7 15 -8 0 -12 -5 -9 -10z"/>
<path d="M1531 4861 c-8 -5 -10 -14 -6 -21 6 -9 10 -8 17 4 12 21 7 28 -11 17z"/>
<path d="M1606 4841 c-3 -5 -16 -7 -29 -5 -20 4 -20 4 2 -6 14 -6 31 -8 39 -5
12 5 13 3 2 -10 -7 -9 -10 -18 -6 -22 9 -9 14 -1 20 30 5 27 -15 39 -28 18z"/>
<path d="M1620 4746 c0 -2 7 -7 16 -10 8 -3 12 -2 9 4 -6 10 -25 14 -25 6z"/>
<path d="M1485 4680 c3 -5 8 -10 11 -10 2 0 4 5 4 10 0 6 -5 10 -11 10 -5 0
-7 -4 -4 -10z"/>
<path d="M1547 4659 c4 -13 8 -18 11 -10 2 7 -1 18 -6 23 -8 8 -9 4 -5 -13z"/>
<path d="M1535 4609 c-9 -14 -2 -20 14 -10 8 6 9 11 3 15 -6 3 -14 1 -17 -5z"/>
<path d="M3236 4508 c3 -5 10 -6 15 -3 13 9 11 12 -6 12 -8 0 -12 -4 -9 -9z"/>
<path d="M1559 4093 c-13 -16 -12 -17 4 -4 16 13 21 21 13 21 -2 0 -10 -8 -17
-17z"/>
<path d="M1590 4099 c0 -5 5 -7 10 -4 6 3 10 8 10 11 0 2 -4 4 -10 4 -5 0 -10
-5 -10 -11z"/>
<path d="M1670 3951 c0 -5 7 -12 16 -15 14 -5 15 -4 4 9 -14 17 -20 19 -20 6z"/>
<path d="M2341 3894 c0 -11 3 -14 6 -6 3 7 2 16 -1 19 -3 4 -6 -2 -5 -13z"/>
<path d="M3018 3893 c7 -3 16 -2 19 1 4 3 -2 6 -13 5 -11 0 -14 -3 -6 -6z"/>
<path d="M1675 3870 c3 -5 8 -10 11 -10 2 0 4 5 4 10 0 6 -5 10 -11 10 -5 0
-7 -4 -4 -10z"/>
<path d="M2788 3873 c6 -2 18 -2 25 0 6 3 1 5 -13 5 -14 0 -19 -2 -12 -5z"/>
<path d="M2361 3844 c0 -11 3 -14 6 -6 3 7 2 16 -1 19 -3 4 -6 -2 -5 -13z"/>
<path d="M2230 3799 c0 -5 -4 -7 -10 -4 -5 3 -7 0 -4 -9 10 -26 31 -27 26 0
-4 24 -12 33 -12 13z"/>
<path d="M2195 3760 c10 -11 20 -20 22 -20 2 0 -2 9 -9 20 -7 11 -17 20 -22
20 -5 0 -1 -9 9 -20z"/>
<path d="M2166 3757 c3 -10 9 -15 12 -12 3 3 0 11 -7 18 -10 9 -11 8 -5 -6z"/>
<path d="M1910 3715 c0 -5 5 -17 10 -25 5 -8 10 -10 10 -5 0 6 -5 17 -10 25
-5 8 -10 11 -10 5z"/>
<path d="M2092 3680 c0 -14 2 -19 5 -12 2 6 2 18 0 25 -3 6 -5 1 -5 -13z"/>
<path d="M2126 3678 c10 -14 21 -24 23 -22 3 3 -6 15 -18 27 l-24 22 19 -27z"/>
<path d="M2177 3680 c3 -11 10 -23 16 -27 6 -3 7 -1 3 5 -5 8 1 12 16 13 20 1
21 2 3 6 -11 3 -25 9 -32 15 -8 7 -10 3 -6 -12z"/>
<path d="M1992 3671 c-11 -7 -10 -10 3 -15 23 -9 25 -8 25 9 0 17 -9 19 -28 6z"/>
<path d="M1985 3640 c-3 -5 -1 -10 4 -10 6 0 11 5 11 10 0 6 -2 10 -4 10 -3 0
-8 -4 -11 -10z"/>
<path d="M1977 3613 c-4 -3 -7 -11 -7 -17 0 -6 5 -5 12 2 6 6 9 14 7 17 -3 3
-9 2 -12 -2z"/>
<path d="M2006 3533 c-6 -14 -5 -15 5 -6 7 7 10 15 7 18 -3 3 -9 -2 -12 -12z"/>
<path d="M2015 3340 c-3 -5 -1 -10 4 -10 6 0 11 5 11 10 0 6 -2 10 -4 10 -3 0
-8 -4 -11 -10z"/>
<path d="M3375 3081 c-3 -5 -1 -12 5 -16 5 -3 10 1 10 9 0 18 -6 21 -15 7z"/>
<path d="M2545 3009 c-11 -4 -15 -8 -10 -9 6 0 2 -7 -8 -14 -12 -9 -14 -16 -8
-21 6 -3 11 -1 11 6 0 8 4 8 13 2 19 -16 67 -25 67 -13 0 5 -11 10 -25 10 -19
0 -25 5 -25 23 1 20 2 21 14 5 16 -22 23 -23 23 -4 0 18 -26 25 -52 15z"/>
<path d="M3177 2960 c-3 -11 -2 -20 3 -20 12 0 21 28 11 35 -5 2 -11 -4 -14
-15z"/>
<path d="M2646 2943 c-6 -14 -5 -15 5 -6 7 7 10 15 7 18 -3 3 -9 -2 -12 -12z"/>
<path d="M2730 2940 c0 -5 5 -10 11 -10 5 0 7 5 4 10 -3 6 -8 10 -11 10 -2 0
-4 -4 -4 -10z"/>
<path d="M3456 2655 c-3 -9 0 -15 9 -15 9 0 12 6 9 15 -4 8 -7 15 -9 15 -2 0
-5 -7 -9 -15z"/>
<path d="M2420 2549 c0 -5 5 -7 10 -4 6 3 10 8 10 11 0 2 -4 4 -10 4 -5 0 -10
-5 -10 -11z"/>
<path d="M2456 2427 c3 -10 9 -15 12 -12 3 3 0 11 -7 18 -10 9 -11 8 -5 -6z"/>
<path d="M3347 2225 c-4 -8 -2 -17 3 -20 6 -4 10 3 10 14 0 25 -6 27 -13 6z"/>
<path d="M3245 2220 c3 -5 8 -10 11 -10 2 0 4 5 4 10 0 6 -5 10 -11 10 -5 0
-7 -4 -4 -10z"/>
<path d="M3270 2220 c0 -5 5 -10 10 -10 6 0 10 5 10 10 0 6 -4 10 -10 10 -5 0
-10 -4 -10 -10z"/>
<path d="M3340 2175 c0 -8 4 -15 10 -15 5 0 7 7 4 15 -4 8 -8 15 -10 15 -2 0
-4 -7 -4 -15z"/>
<path d="M3266 2129 c10 -12 18 -23 17 -25 -6 -9 -2 -24 5 -24 13 0 8 36 -7
54 -8 9 -18 16 -24 16 -5 0 -2 -9 9 -21z"/>
<path d="M3320 2137 c0 -8 6 -14 14 -14 8 0 12 6 9 14 -3 7 -9 13 -14 13 -5 0
-9 -6 -9 -13z"/>
<path d="M2385 2130 c3 -5 8 -10 11 -10 2 0 4 5 4 10 0 6 -5 10 -11 10 -5 0
-7 -4 -4 -10z"/>
<path d="M3340 2095 c0 -8 -6 -15 -13 -15 -7 0 -13 -8 -13 -17 -1 -10 -4 -26
-9 -35 -9 -23 10 -23 39 0 16 12 21 23 16 37 -4 11 -5 26 -3 33 3 6 0 12 -6
12 -6 0 -11 -7 -11 -15z"/>
<path d="M2401 2078 c-13 -20 -12 -22 1 -11 8 7 18 10 22 6 4 -4 4 0 0 10 -8
21 -6 21 -23 -5z"/>
<path d="M3231 2044 c0 -11 3 -14 6 -6 3 7 2 16 -1 19 -3 4 -6 -2 -5 -13z"/>
<path d="M3202 2027 c-7 -8 -7 -18 -2 -27 10 -16 10 -16 14 18 3 26 2 26 -12
9z"/>
<path d="M3270 2004 c0 -8 5 -12 10 -9 6 4 8 11 5 16 -9 14 -15 11 -15 -7z"/>
<path d="M2610 1996 c0 -2 7 -6 15 -10 8 -3 15 -1 15 4 0 6 -7 10 -15 10 -8 0
-15 -2 -15 -4z"/>
<path d="M3217 1955 c2 -7 -8 -22 -23 -34 -27 -21 -27 -21 -3 -17 13 3 27 5
30 5 13 2 15 58 3 58 -7 0 -10 -6 -7 -12z"/>
<path d="M2645 1929 c-11 -16 -1 -19 13 -3 7 8 8 14 3 14 -5 0 -13 -5 -16 -11z"/>
<path d="M3120 1870 c0 -5 5 -10 10 -10 6 0 10 5 10 10 0 6 -4 10 -10 10 -5 0
-10 -4 -10 -10z"/>
<path d="M3107 1833 c-11 -11 -8 -23 6 -23 8 0 14 7 14 15 0 16 -9 19 -20 8z"/>
<path d="M3171 1791 c-10 -6 -10 -10 -1 -16 13 -8 24 -1 19 14 -3 6 -10 7 -18
2z"/>
<path d="M3153 1763 c4 -3 2 -12 -4 -20 -9 -10 -8 -13 5 -13 9 0 16 8 16 20 0
11 -5 20 -12 20 -6 0 -8 -3 -5 -7z"/>
<path d="M2815 1750 c-3 -5 -1 -10 4 -10 6 0 11 5 11 10 0 6 -2 10 -4 10 -3 0
-8 -4 -11 -10z"/>
<path d="M3183 1742 c1 -14 5 -18 11 -12 7 7 6 14 -1 21 -9 9 -12 7 -10 -9z"/>
<path d="M2768 1708 c7 -7 16 -7 28 0 14 8 13 10 -10 10 -18 0 -24 -4 -18 -10z"/>
<path d="M3060 1692 c0 -10 29 -26 43 -24 4 1 7 -2 7 -8 0 -5 4 -10 9 -10 5 0
7 9 4 19 -3 12 -11 17 -19 14 -8 -3 -21 0 -29 7 -9 7 -15 8 -15 2z"/>
<path d="M3179 1628 c-7 -24 -5 -38 4 -35 15 5 22 37 8 37 -6 0 -11 -1 -12 -2z"/>
<path d="M2795 1600 c3 -5 8 -10 11 -10 2 0 4 5 4 10 0 6 -5 10 -11 10 -5 0
-7 -4 -4 -10z"/>
<path d="M2820 1589 c0 -4 11 -6 25 -6 14 0 25 3 25 8 0 5 -11 8 -25 7 -14 -1
-25 -5 -25 -9z"/>
<path d="M3030 1586 c0 -2 7 -9 15 -16 13 -11 14 -10 9 4 -5 14 -24 23 -24 12z"/>
<path d="M2990 1563 c0 -2 6 -11 14 -18 12 -12 16 -12 25 -1 9 11 6 15 -14 18
-14 3 -25 3 -25 1z"/>
<path d="M2890 1531 c0 -6 5 -13 10 -16 6 -3 10 1 10 9 0 9 -4 16 -10 16 -5 0
-10 -4 -10 -9z"/>
<path d="M3016 1505 c4 -8 11 -15 16 -15 6 0 5 6 -2 15 -7 8 -14 15 -16 15 -2
0 -1 -7 2 -15z"/>
<path d="M2947 1504 c-4 -4 -7 -17 -7 -28 1 -19 1 -20 11 -3 11 19 8 43 -4 31z"/>
<path d="M2645 3190 c3 -5 8 -10 11 -10 2 0 4 5 4 10 0 6 -5 10 -11 10 -5 0
-7 -4 -4 -10z"/>
<path d="M2948 3113 c7 -3 16 -2 19 1 4 3 -2 6 -13 5 -11 0 -14 -3 -6 -6z"/>
<path d="M2114 1665 c-10 -8 -14 -15 -8 -15 6 0 17 7 24 15 16 19 9 19 -16 0z"/>
<path d="M2096 1627 c3 -10 9 -15 12 -12 3 3 0 11 -7 18 -10 9 -11 8 -5 -6z"/>
<path d="M2683 1515 c7 -14 18 -25 24 -25 8 0 4 10 -9 25 -27 31 -29 31 -15 0z"/>
<path d="M2725 1460 c-3 -5 -1 -10 4 -10 6 0 11 5 11 10 0 6 -2 10 -4 10 -3 0
-8 -4 -11 -10z"/>
<path d="M2635 1410 c-3 -5 -1 -10 4 -10 6 0 11 5 11 10 0 6 -2 10 -4 10 -3 0
-8 -4 -11 -10z"/>
<path d="M2581 1356 c-10 -12 -6 -26 10 -26 11 0 19 29 10 35 -5 2 -14 -1 -20
-9z"/>
<path d="M2727 1293 c-4 -3 -7 -11 -7 -17 0 -6 5 -5 12 2 6 6 9 14 7 17 -3 3
-9 2 -12 -2z"/>
<path d="M2616 1267 c-14 -11 -13 -12 9 -13 14 -1 25 2 25 6 0 16 -17 19 -34
7z"/>
<path d="M2678 1263 c7 -3 16 -2 19 1 4 3 -2 6 -13 5 -11 0 -14 -3 -6 -6z"/>
<path d="M2470 1241 c0 -28 12 -31 35 -9 19 18 19 19 1 12 -14 -5 -17 -4 -12
4 4 7 1 12 -8 12 -9 0 -16 -8 -16 -19z"/>
<path d="M2690 1225 c0 -8 2 -15 4 -15 2 0 6 7 10 15 3 8 1 15 -4 15 -6 0 -10
-7 -10 -15z"/>
<path d="M2506 1215 c-28 -29 -20 -43 14 -25 15 8 21 6 28 -7 9 -14 10 -14 17
6 8 26 8 26 -21 35 -14 4 -28 1 -38 -9z"/>
<path d="M2660 1219 c0 -5 5 -7 10 -4 6 3 10 8 10 11 0 2 -4 4 -10 4 -5 0 -10
-5 -10 -11z"/>
<path d="M2610 1180 c0 -13 11 -13 30 0 12 8 11 10 -7 10 -13 0 -23 -4 -23
-10z"/>
<path d="M2768 1172 c-10 -2 -18 -9 -18 -16 0 -24 13 -26 28 -5 16 23 14 27
-10 21z"/>
<path d="M2656 1107 c3 -10 9 -15 12 -12 3 3 0 11 -7 18 -10 9 -11 8 -5 -6z"/>
<path d="M1906 975 c4 -8 8 -15 10 -15 2 0 4 7 4 15 0 8 -4 15 -10 15 -5 0 -7
-7 -4 -15z"/>
<path d="M2645 940 c3 -5 11 -10 16 -10 6 0 7 5 4 10 -3 6 -11 10 -16 10 -6 0
-7 -4 -4 -10z"/>
<path d="M2570 920 c0 -5 5 -10 10 -10 6 0 10 5 10 10 0 6 -4 10 -10 10 -5 0
-10 -4 -10 -10z"/>
<path d="M2698 923 c7 -3 16 -2 19 1 4 3 -2 6 -13 5 -11 0 -14 -3 -6 -6z"/>
<path d="M2080 906 c0 -2 7 -6 15 -10 8 -3 15 -1 15 4 0 6 -7 10 -15 10 -8 0
-15 -2 -15 -4z"/>
<path d="M2635 860 c3 -5 8 -10 11 -10 2 0 4 5 4 10 0 6 -5 10 -11 10 -5 0 -7
-4 -4 -10z"/>
<path d="M2300 800 c0 -5 5 -10 11 -10 5 0 7 5 4 10 -3 6 -8 10 -11 10 -2 0
-4 -4 -4 -10z"/>
<path d="M225 4210 c-3 -5 1 -10 9 -10 9 0 16 5 16 10 0 6 -4 10 -9 10 -6 0
-13 -4 -16 -10z"/>
<path d="M121 3864 c0 -11 3 -14 6 -6 3 7 2 16 -1 19 -3 4 -6 -2 -5 -13z"/>
<path d="M4283 2445 c-13 -24 -28 -95 -19 -95 10 0 37 74 34 95 l-3 20 -12
-20z"/>
<path d="M3112 420 c-12 -10 -19 -21 -14 -24 8 -5 47 33 40 39 -2 2 -13 -5
-26 -15z"/>
<path d="M3045 369 c-4 -6 -5 -12 -2 -15 2 -3 7 2 10 11 7 17 1 20 -8 4z"/>
<path d="M3141 354 c0 -11 3 -14 6 -6 3 7 2 16 -1 19 -3 4 -6 -2 -5 -13z"/>
<path d="M3007 346 c-4 -10 -1 -13 9 -9 15 6 19 23 5 23 -5 0 -11 -7 -14 -14z"/>
<path d="M3110 319 c0 -5 5 -7 10 -4 6 3 10 8 10 11 0 2 -4 4 -10 4 -5 0 -10
-5 -10 -11z"/>
<path d="M3310 320 c0 -5 5 -10 10 -10 6 0 10 5 10 10 0 6 -4 10 -10 10 -5 0
-10 -4 -10 -10z"/>
<path d="M2980 304 c0 -8 5 -12 10 -9 6 3 10 10 10 16 0 5 -4 9 -10 9 -5 0
-10 -7 -10 -16z"/>
<path d="M2950 171 c0 -11 9 -21 21 -24 19 -5 20 -4 5 12 -9 10 -13 21 -9 24
3 4 1 7 -5 7 -7 0 -12 -8 -12 -19z"/>
<path d="M3136 145 c-19 -15 -19 -15 3 -15 12 0 20 4 17 9 -4 5 0 12 6 14 7 3
9 6 3 6 -5 0 -19 -6 -29 -14z"/>
<path d="M3080 143 c0 -4 5 -15 10 -23 8 -13 10 -13 10 2 0 9 -4 20 -10 23 -5
3 -10 3 -10 -2z"/>
<path d="M2880 118 c0 -17 2 -18 15 -4 8 8 15 16 15 19 0 2 -7 4 -15 4 -8 0
-15 -9 -15 -19z"/>
<path d="M2545 120 c3 -5 8 -10 11 -10 2 0 4 5 4 10 0 6 -5 10 -11 10 -5 0 -7
-4 -4 -10z"/>
<path d="M2670 117 c0 -8 8 -17 18 -19 11 -3 19 0 19 8 0 8 -3 12 -5 9 -3 -3
-11 0 -19 6 -10 9 -13 8 -13 -4z"/>
<path d="M3030 29 c0 -5 5 -7 10 -4 6 3 10 8 10 11 0 2 -4 4 -10 4 -5 0 -10
-5 -10 -11z"/>
<path d="M2978 3 c7 -3 16 -2 19 1 4 3 -2 6 -13 5 -11 0 -14 -3 -6 -6z"/>
</g>
</svg>
